<?xml version="1.0" encoding="UTF-8"?>
<svg xmlns="http://www.w3.org/2000/svg" id="Groupe_6924" width="311.21" height="50" viewBox="0 0 311.21 50">
  <rect id="Rectangle_3" x="86.58" y="1.39" width="17.12" height="17.12" style="fill:#fff; stroke-width:0px;"></rect>
  <rect id="Rectangle_4" x="116.44" y="31.5" width="17.12" height="17.12" style="fill:#fff; stroke-width:0px;"></rect>
  <path id="Tracé_1" d="M26.86,15.51l5.37,17.37h-10.87l5.5-17.37ZM18.86,1.39L0,48.61h16.49l1.75-5.5h17.24l1.75,5.5h16.99L34.86,1.39h-15.99Z" style="fill:#fff; stroke-width:0px;"></path>
  <path id="Tracé_2" d="M174.66,48.61h34.36v-10.49h-19.11v-7.87h16.62v-9.99h-16.62v-8.37h19.11V1.39h-34.36v47.22Z" style="fill:#fff; stroke-width:0px;"></path>
  <path id="Tracé_3" d="M294.22,1.39l-7.75,16.74-8.25-16.74h-17.87l17.24,30.48-9,16.74h17.12L311.21,1.39s-16.99,0-16.99,0Z" style="fill:#fff; stroke-width:0px;"></path>
  <path id="Tracé_4" d="M71.34,1.39h-15.24v47.22h15.24v-24.11l15.12,24.11h19.36v-15.74h-14.74L71.34,1.39Z" style="fill:#fff; stroke-width:0px;"></path>
  <path id="Tracé_5" d="M149.79,29L132.43,1.39h-17.12v15.74h12.49l19.74,31.48h17.37V1.39h-15.24l.12,27.61Z" style="fill:#fff; stroke-width:0px;"></path>
  <path id="Tracé_6" d="M241.37,37.24c-1.75,0-3.37-.25-5-1-2.87-1.25-5-3.5-6-6.37-.5-1.5-.87-3.12-.87-4.87,0-1.62.25-3.12.75-4.62.5-1.37,1.25-2.75,2.12-3.87,1-1.12,2.25-2,3.62-2.62,1.62-.75,3.25-1,5-1,3.62-.25,7.12,1.37,9.37,4.25l10.37-8.62c-.75-.87-1.5-1.62-2.25-2.37-2.25-2-4.87-3.5-7.62-4.5-3.25-1.12-6.75-1.62-10.24-1.62-3.62-.12-7.37.62-10.74,2.12-3,1.25-5.75,3.12-8,5.5-1,1-1.87,2.12-2.62,3.37-1.5,2.37-2.62,4.87-3.25,7.5-.5,2.12-.75,4.37-.75,6.5,0,3.25.62,6.5,1.75,9.49,2.37,6.12,7.12,10.99,13.24,13.49,3.5,1.37,7.25,2.12,10.99,2,3.37,0,6.62-.5,9.87-1.62,2.75-1,5.25-2.37,7.5-4.25.87-.75,1.75-1.62,2.5-2.5l-10.37-8.75c-2.87,2.75-5.12,4.37-9.37,4.37" style="fill:#fff; stroke-width:0px;"></path>
</svg>
