<?xml version="1.0" encoding="UTF-8"?>
<svg version="1.1" xmlns="http://www.w3.org/2000/svg" width="181" height="90">
<path d="M0 0 C0.99 0 1.98 0 3 0 C3.37769531 0.79921875 3.75539063 1.5984375 4.14453125 2.421875 C11.23046022 16.56054357 19.91280719 26.4902241 35.3125 31.796875 C36.85829835 32.25812128 38.42696814 32.64249276 40 33 C40.28875 32.05125 40.5775 31.1025 40.875 30.125 C42 27 42 27 44 25 C46.3431213 25.25561323 48.67843403 25.59270772 51 26 C55.03788243 26 56.33382184 24.46628614 59.5 22 C60.56975138 21.17635404 61.64007761 20.35345423 62.7109375 19.53125 C63.25459961 19.11101563 63.79826172 18.69078125 64.35839844 18.2578125 C66.91724985 16.29719345 69.51923194 14.39760418 72.125 12.5 C73.45917969 11.52546875 73.45917969 11.52546875 74.8203125 10.53125 C77.8632441 8.39356328 80.04798041 7.52346034 83.828125 7.6015625 C92.27166755 9.15055772 99.62009321 15.80195416 106.078125 21.046875 C109.39347748 23.26301971 112.08078639 24.28497813 116 25 C118.42754246 24.55635798 118.42754246 24.55635798 120.5625 23.25 C121.40425781 22.78851562 122.24601563 22.32703125 123.11328125 21.8515625 C125.33331707 20.4276153 127.43214168 18.97152106 129.54296875 17.3984375 C130.15648193 16.94307617 130.76999512 16.48771484 131.40209961 16.01855469 C132.6163445 15.10285779 133.81708952 14.16892633 135.00219727 13.21582031 C137.83153494 11.05046528 139.51682837 10.00120793 143.125 9.9921875 C146.26911549 11.09433668 148.21054909 12.35254487 150.75 14.5 C151.60722656 15.21800781 152.46445313 15.93601562 153.34765625 16.67578125 C156.82686686 19.72457406 160.25214596 22.82898389 163.66015625 25.95703125 C165.74168318 27.77445793 167.8329902 29.33930731 170.125 30.875 C171.07375 31.57625 172.0225 32.2775 173 33 C173 33.99 173 34.98 173 36 C169.40224888 34.69909813 166.58093604 33.14923699 163.53125 30.84765625 C162.71269531 30.23599609 161.89414063 29.62433594 161.05078125 28.99414062 C160.20902344 28.35669922 159.36726562 27.71925781 158.5 27.0625 C156.8244493 25.8013466 155.14740974 24.54216839 153.46875 23.28515625 C152.73076172 22.72707275 151.99277344 22.16898926 151.23242188 21.59399414 C150.12737305 20.80496704 150.12737305 20.80496704 149 20 C148.18595703 19.41661865 147.37191406 18.8332373 146.53320312 18.23217773 C144.08534554 16.78943491 144.08534554 16.78943491 141.44433594 17.13085938 C138.80937171 18.06778233 137.07587918 19.16938771 134.890625 20.90625 C134.13523438 21.48503906 133.37984375 22.06382813 132.6015625 22.66015625 C131.04352782 23.87915016 129.49133281 25.10564788 127.9453125 26.33984375 C122.82750482 30.23458214 118.56672011 32.46922186 112 32 C105.41987636 30.0122134 100.14745627 25.21725908 94.83203125 21.0234375 C90.43791747 17.88391896 86.62469581 16.43727938 81.14453125 16.640625 C72.68972786 18.05745908 65.24430617 25.41094053 58.54296875 30.3984375 C49.32485418 37.22504861 49.32485418 37.22504861 44 39 C44.79664062 39.39832031 44.79664062 39.39832031 45.609375 39.8046875 C49.07291667 41.53645833 52.53645833 43.26822917 56 45 C56 45.99 56 46.98 56 48 C49.80100095 48.50604074 47.08862949 47.16839195 42 44 C38.28924603 42.69667031 34.52671879 42.79672717 30.625 42.75 C28.69527344 42.71132812 28.69527344 42.71132812 26.7265625 42.671875 C22.72943414 43.02382341 20.37603065 43.86881841 17 46 C14.63425766 49.5486135 14.89134735 50.5764525 15.375 54.6875 C15.48585938 55.68136719 15.59671875 56.67523438 15.7109375 57.69921875 C15.85402344 58.83810547 15.85402344 58.83810547 16 60 C16.44730469 59.55269531 16.89460938 59.10539062 17.35546875 58.64453125 C18.61002756 57.38997244 19.86664144 56.13746627 21.125 54.88671875 C22.67454126 53.32749285 24.18635666 51.73087427 25.6875 50.125 C27.90877655 48.08382696 29.01908074 47.2129228 32 47 C33 48 33 48 33.125 51.1875 C33.0141397 54.56873925 32.64663864 57.68597699 32 61 C32.47050781 60.51789063 32.94101562 60.03578125 33.42578125 59.5390625 C34.04839844 58.90742187 34.67101563 58.27578125 35.3125 57.625 C35.92738281 56.99851563 36.54226562 56.37203125 37.17578125 55.7265625 C39 54 39 54 42 52 C44.015625 52.12890625 44.015625 52.12890625 46 53 C47.484375 54.77734375 47.484375 54.77734375 48.75 56.9375 C49.17796875 57.64777344 49.6059375 58.35804687 50.046875 59.08984375 C51 61 51 61 51 63 C51.66 63 52.32 63 53 63 C53.226875 62.443125 53.45375 61.88625 53.6875 61.3125 C56.30318618 56.70391007 60.20670496 53.22128307 65 51 C68.3125 50.8125 68.3125 50.8125 71 51 C71.2165625 51.9590625 71.2165625 51.9590625 71.4375 52.9375 C71.81007181 54.97545146 71.81007181 54.97545146 73 56 C73.07244053 58.01964199 73.08377188 60.04167124 73.0625 62.0625 C73.05347656 63.16722656 73.04445313 64.27195312 73.03515625 65.41015625 C73.02355469 66.26480469 73.01195313 67.11945313 73 68 C71.515 68.495 71.515 68.495 70 69 C69.34 68.67 68.68 68.34 68 68 C68 67.34 68 66.68 68 66 C67.071875 66.66 66.14375 67.32 65.1875 68 C60.3436267 70.7679276 55.43445057 70.84670295 50 70 C46.24328843 67.55813748 44.8301102 64.02624244 43 60 C39.02753742 62.16679777 35.97109545 64.76244783 32.74609375 67.890625 C31 69 31 69 28.84765625 68.734375 C27 68 27 68 26 67 C25.76807135 65.48530552 25.58784762 63.96245438 25.4375 62.4375 C25.35371094 61.61121094 25.26992188 60.78492188 25.18359375 59.93359375 C25.12300781 59.29550781 25.06242187 58.65742187 25 58 C20.61191026 61.96570677 17.31445687 65.01191871 16 71 C14.02 70.67 12.04 70.34 10 70 C9.9729797 67.24993392 9.95315117 64.50013454 9.9375 61.75 C9.92912109 60.97269531 9.92074219 60.19539063 9.91210938 59.39453125 C9.90727539 58.26337891 9.90727539 58.26337891 9.90234375 57.109375 C9.89448853 56.07248535 9.89448853 56.07248535 9.88647461 55.01464844 C10.00562029 52.90026102 10.42381763 51.03358485 11 49 C9.515 48.505 9.515 48.505 8 48 C8 47.01 8 46.02 8 45 C8.61488281 44.66226563 9.22976562 44.32453125 9.86328125 43.9765625 C10.67152344 43.53054687 11.47976562 43.08453125 12.3125 42.625 C13.11300781 42.18414062 13.91351562 41.74328125 14.73828125 41.2890625 C16.53527943 40.26486665 18.27900708 39.14732862 20 38 C19.29875 37.64808594 18.5975 37.29617187 17.875 36.93359375 C7.38234118 31.47341939 -1.39663005 24.71060818 -7 14 C-7.59059333 10.53949223 -7.54053349 7.46091584 -7 4 C-6.34 4 -5.68 4 -5 4 C-3.91306077 5.75235078 -2.90705729 7.5550745 -1.9375 9.375 C3.02307029 18.09982841 8.76353121 25.67654652 18 30 C17.030625 29.2575 16.06125 28.515 15.0625 27.75 C9.26484926 22.80424896 0.52526146 13.75686555 -0.1953125 5.859375 C-0.13020833 3.90625 -0.06510417 1.953125 0 0 Z M60.3125 59.8125 C59.37857422 60.59560547 59.37857422 60.59560547 58.42578125 61.39453125 C56.66798749 63.01599184 56.66798749 63.01599184 57 66 C61.37785406 65.49967382 63.88159078 64.11840922 67 61 C67 59.68 67 58.36 67 57 C63.47899095 57 62.89968686 57.58328868 60.3125 59.8125 Z " fill="#8BC750" transform="translate(8,6)"/>
<path d="M0 0 C2.0625 0.4375 2.0625 0.4375 4 1 C4.08948558 5.47427924 3.85743651 9.60563789 3 14 C3.47050781 13.51789063 3.94101562 13.03578125 4.42578125 12.5390625 C5.04839844 11.90742187 5.67101562 11.27578125 6.3125 10.625 C6.92738281 9.99851562 7.54226562 9.37203125 8.17578125 8.7265625 C10 7 10 7 13 5 C15.015625 5.12890625 15.015625 5.12890625 17 6 C18.484375 7.77734375 18.484375 7.77734375 19.75 9.9375 C20.17796875 10.64777344 20.6059375 11.35804687 21.046875 12.08984375 C22 14 22 14 22 16 C22.66 16 23.32 16 24 16 C24.226875 15.443125 24.45375 14.88625 24.6875 14.3125 C27.30318618 9.70391007 31.20670496 6.22128307 36 4 C39.3125 3.8125 39.3125 3.8125 42 4 C42.144375 4.639375 42.28875 5.27875 42.4375 5.9375 C42.81007181 7.97545146 42.81007181 7.97545146 44 9 C44.07244053 11.01964199 44.08377188 13.04167124 44.0625 15.0625 C44.05347656 16.16722656 44.04445312 17.27195312 44.03515625 18.41015625 C44.02355469 19.26480469 44.01195312 20.11945313 44 21 C43.01 21.33 42.02 21.66 41 22 C40.34 21.67 39.68 21.34 39 21 C39 20.34 39 19.68 39 19 C37.6078125 19.99 37.6078125 19.99 36.1875 21 C31.3436267 23.7679276 26.43445057 23.84670295 21 23 C17.24328843 20.55813748 15.8301102 17.02624244 14 13 C10.02753742 15.16679777 6.97109545 17.76244783 3.74609375 20.890625 C2 22 2 22 -0.15234375 21.734375 C-2 21 -2 21 -3 20 C-3.23192865 18.48530552 -3.41215238 16.96245438 -3.5625 15.4375 C-3.64628906 14.61121094 -3.73007812 13.78492187 -3.81640625 12.93359375 C-3.87699219 12.29550781 -3.93757813 11.65742187 -4 11 C-8.38808974 14.96570677 -11.68554313 18.01191871 -13 24 C-14.98 23.67 -16.96 23.34 -19 23 C-19.05416741 20.27056463 -19.09375225 17.54221436 -19.125 14.8125 C-19.14175781 14.04357422 -19.15851562 13.27464844 -19.17578125 12.48242188 C-19.21266851 8.1850566 -18.9958504 4.92098169 -17 1 C-16.01 1.33 -15.02 1.66 -14 2 C-13.67 5.63 -13.34 9.26 -13 13 C-11.948125 11.948125 -10.89625 10.89625 -9.8125 9.8125 C-6.54166667 6.54166667 -3.27083333 3.27083333 0 0 Z M31.3125 12.8125 C30.37857422 13.59560547 30.37857422 13.59560547 29.42578125 14.39453125 C27.66798749 16.01599184 27.66798749 16.01599184 28 19 C32.37785406 18.49967382 34.88159078 17.11840922 38 14 C38 12.68 38 11.36 38 10 C34.47899095 10 33.89968686 10.58328868 31.3125 12.8125 Z " fill="#231F21" transform="translate(37,53)"/>
<path d="M0 0 C0.66 0 1.32 0 2 0 C3.08693923 1.75235078 4.09294271 3.5550745 5.0625 5.375 C10.81338268 15.45092668 17.51818464 22.85525576 28 28 C29.01964844 28.54398438 30.03929688 29.08796875 31.08984375 29.6484375 C36.03644393 31.73294231 41.16282699 31.32134011 46.4375 31.1875 C47.96407227 31.16719727 47.96407227 31.16719727 49.52148438 31.14648438 C52.01488214 31.1113661 54.50715512 31.06218559 57 31 C54.94766315 33.2477975 53.99332739 34.0022242 51 35 C51.79664062 35.39832031 51.79664062 35.39832031 52.609375 35.8046875 C56.07291667 37.53645833 59.53645833 39.26822917 63 41 C63 41.99 63 42.98 63 44 C56.80100095 44.50604074 54.08862949 43.16839195 49 40 C45.28924603 38.69667031 41.52671879 38.79672717 37.625 38.75 C35.69527344 38.71132812 35.69527344 38.71132812 33.7265625 38.671875 C29.75558511 39.02152081 27.36577895 39.90528561 24 42 C23.67 42.66 23.34 43.32 23 44 C20.36 44 17.72 44 15 44 C15 43.01 15 42.02 15 41 C15.61488281 40.66226563 16.22976562 40.32453125 16.86328125 39.9765625 C17.67152344 39.53054687 18.47976562 39.08453125 19.3125 38.625 C20.11300781 38.18414062 20.91351562 37.74328125 21.73828125 37.2890625 C23.53527943 36.26486665 25.27900708 35.14732862 27 34 C26.29875 33.64808594 25.5975 33.29617187 24.875 32.93359375 C14.38234118 27.47341939 5.60336995 20.71060818 0 10 C-0.59059333 6.53949223 -0.54053349 3.46091584 0 0 Z " fill="#2884AC" transform="translate(1,10)"/>
<path d="M0 0 C0.99 0 1.98 0 3 0 C3.37769531 0.79921875 3.75539063 1.5984375 4.14453125 2.421875 C11.23046022 16.56054357 19.91280719 26.4902241 35.3125 31.796875 C36.85829835 32.25812128 38.42696814 32.64249276 40 33 C40.28875 32.05125 40.5775 31.1025 40.875 30.125 C42 27 42 27 44 25 C50.46153846 25.46153846 50.46153846 25.46153846 53 28 C53.125 31.125 53.125 31.125 53 34 C45.72123856 37.72192338 35.92487605 36.98852927 28 36 C23.99478371 34.62053121 21.18604215 32.75274041 18 30 C17.39671875 29.566875 16.7934375 29.13375 16.171875 28.6875 C9.72993602 23.81251915 2.95987829 15.53141805 0 8 C-0.24636612 5.29982731 -0.09065666 2.71969994 0 0 Z " fill="#8BC654" transform="translate(8,6)"/>
<path d="M0 0 C2.52726683 2.19029792 4.50012869 4.00025739 6 7 C6.1509482 9.45290828 6.23128564 11.85858009 6.25 14.3125 C6.27578125 15.62863281 6.3015625 16.94476563 6.328125 18.30078125 C5.98528315 22.16591501 5.36079233 23.97178741 3 27 C-0.31371 29.20914 -1.3446021 29.22481553 -5.1875 29.125 C-6.08855469 29.10695313 -6.98960938 29.08890625 -7.91796875 29.0703125 C-8.60503906 29.04710938 -9.29210937 29.02390625 -10 29 C-10 27.35 -10 25.7 -10 24 C-8.3603125 24.0928125 -8.3603125 24.0928125 -6.6875 24.1875 C-3.12317404 24.33352473 -3.12317404 24.33352473 -1.125 22.6875 C0.18546123 20.88214533 0.18546123 20.88214533 1 18 C-0.546875 18.3403125 -0.546875 18.3403125 -2.125 18.6875 C-6.55318277 19.04461151 -8.3531466 18.45950578 -12 16 C-14.14081795 13.39378685 -13.99959667 11.97781664 -13.9375 8.5625 C-12.82940237 4.35172899 -11.31363542 2.74789278 -8 0 C-4.99054157 -1.50472922 -3.20590237 -0.88005163 0 0 Z M-7.8125 5.125 C-9.32170103 7.08282518 -9.32170103 7.08282518 -8.6875 10.1875 C-8.460625 11.115625 -8.23375 12.04375 -8 13 C-3.38492226 14.04214691 -3.38492226 14.04214691 1 13 C0.67039784 7.98464948 0.67039784 7.98464948 -2 4 C-5.78911589 3.64842476 -5.78911589 3.64842476 -7.8125 5.125 Z " fill="#0188CD" transform="translate(115,57)"/>
<path d="M0 0 C0.72445312 0.144375 1.44890625 0.28875 2.1953125 0.4375 C7.18491623 1.39550392 11.89267738 2.27607149 17 2 C17.33 1.34 17.66 0.68 18 0 C18.66 0 19.32 0 20 0 C20 0.66 20 1.32 20 2 C21.65 2 23.3 2 25 2 C25 3.65 25 5.3 25 7 C7.51 7 -9.98 7 -28 7 C-28 5.02 -28 3.04 -28 1 C-24.99975053 0.94555999 -22.00050961 0.9061164 -19 0.875 C-18.16082031 0.85824219 -17.32164062 0.84148437 -16.45703125 0.82421875 C-10.94745123 0.78150883 -6.28951708 1.44497993 -1 3 C-0.67 2.01 -0.34 1.02 0 0 Z " fill="#E61F29" transform="translate(149,79)"/>
<path d="M0 0 C2 1.375 2 1.375 3 3 C2.71116623 5.59425244 2.3193504 6.70898525 0.37109375 8.484375 C-0.26699219 8.90203125 -0.90507812 9.3196875 -1.5625 9.75 C-2.20316406 10.17796875 -2.84382812 10.6059375 -3.50390625 11.046875 C-3.99761719 11.36140625 -4.49132812 11.6759375 -5 12 C-1.535 11.505 -1.535 11.505 2 11 C2 12.32 2 13.64 2 15 C-0.22965892 17.0206284 -1.93603923 17.94522182 -4.97265625 18.1015625 C-8.32906342 17.83806885 -10.59523509 17.24285894 -13.5 15.5 C-15.76254414 11.7290931 -15.89984576 8.27808028 -15 4 C-10.31222494 -2.08143792 -7.0462309 -2.51651103 0 0 Z M-9.8125 5.5 C-10.204375 5.995 -10.59625 6.49 -11 7 C-10.67 7.99 -10.34 8.98 -10 10 C-8.83054208 9.19152271 -7.66449539 8.37810888 -6.5 7.5625 C-5.8503125 7.11003906 -5.200625 6.65757813 -4.53125 6.19140625 C-3.77328125 5.60166016 -3.77328125 5.60166016 -3 5 C-3 4.67 -3 4.34 -3 4 C-6.71736641 3.65099442 -6.71736641 3.65099442 -9.8125 5.5 Z M-10 10 C-9 12 -9 12 -9 12 Z " fill="#0088CF" transform="translate(165,58)"/>
<path d="M0 0 C1.97265625 0.421875 1.97265625 0.421875 4.97265625 2.109375 C8.09910671 7.28755857 7.36138693 12.52180717 6.97265625 18.421875 C5.32265625 18.421875 3.67265625 18.421875 1.97265625 18.421875 C1.97265625 14.131875 1.97265625 9.841875 1.97265625 5.421875 C-0.33734375 5.421875 -2.64734375 5.421875 -5.02734375 5.421875 C-5.02734375 9.711875 -5.02734375 14.001875 -5.02734375 18.421875 C-6.67734375 18.421875 -8.32734375 18.421875 -10.02734375 18.421875 C-10.13558148 16.17293546 -10.2130402 13.92249925 -10.27734375 11.671875 C-10.32375 10.41890625 -10.37015625 9.1659375 -10.41796875 7.875 C-10.02734375 4.421875 -10.02734375 4.421875 -8.2578125 2.00390625 C-5.53357366 0.07165278 -3.31978156 -0.22338717 0 0 Z " fill="#0088CE" transform="translate(133.02734375,56.578125)"/>
<path d="M0 0 C1.11632812 -0.02900391 2.23265625 -0.05800781 3.3828125 -0.08789062 C10.3232595 -0.14108981 15.00278938 0.6272929 20.875 4.3125 C22.20254894 4.99061211 23.53455602 5.66024839 24.875 6.3125 C24.875 7.3025 24.875 8.2925 24.875 9.3125 C18.67600095 9.81854074 15.96362949 8.48089195 10.875 5.3125 C7.16424603 4.00917031 3.40171879 4.10922717 -0.5 4.0625 C-2.42972656 4.02382813 -2.42972656 4.02382813 -4.3984375 3.984375 C-8.36941489 4.33402081 -10.75922105 5.21778561 -14.125 7.3125 C-14.455 7.9725 -14.785 8.6325 -15.125 9.3125 C-17.765 9.3125 -20.405 9.3125 -23.125 9.3125 C-23.125 8.3225 -23.125 7.3325 -23.125 6.3125 C-21.66695831 5.49947675 -20.20855685 4.68709869 -18.75 3.875 C-17.53183594 3.19630859 -17.53183594 3.19630859 -16.2890625 2.50390625 C-10.96338872 -0.42809827 -6.01839333 0.05106103 0 0 Z " fill="#AFB3B6" transform="translate(39.125,44.6875)"/>
<path d="M0 0 C0.66 0 1.32 0 2 0 C3.08693923 1.75235078 4.09294271 3.5550745 5.0625 5.375 C9.33845583 12.94980646 14.85567469 18.91400689 21 25 C18.50935112 25.68707555 16.62113708 26 14 26 C8.03600272 21.97776928 3.38291837 16.32824531 0 10 C-0.59838496 6.53857317 -0.54081362 3.46270941 0 0 Z " fill="#0289CD" transform="translate(1,10)"/>
<path d="M0 0 C6.75 0.75 6.75 0.75 9 3 C9.125 6.125 9.125 6.125 9 9 C4.8794254 10.99785435 1.54805635 11.17835515 -3 11 C-3.75 8.875 -3.75 8.875 -4 6 C-2.0625 2.6875 -2.0625 2.6875 0 0 Z " fill="#EBCFC1" transform="translate(52,31)"/>
<path d="M0 0 C0.33 0.66 0.66 1.32 1 2 C2.32 2 3.64 2 5 2 C5 3.65 5 5.3 5 7 C-0.61 7 -6.22 7 -12 7 C-12.66 5.02 -13.32 3.04 -14 1 C-9.27685687 0.22887459 -4.78478822 -0.09764874 0 0 Z " fill="#E81F2A" transform="translate(85,79)"/>
<path d="M0 0 C0 1.32 0 2.64 0 4 C-0.99 4.33 -1.98 4.66 -3 5 C-3.33 9.29 -3.66 13.58 -4 18 C-5.65 18 -7.3 18 -9 18 C-9.10823773 15.75106046 -9.18569645 13.50062425 -9.25 11.25 C-9.29640625 9.99703125 -9.3428125 8.7440625 -9.390625 7.453125 C-9 4 -9 4 -7.15625 1.5625 C-4.55966769 -0.31908139 -3.13764313 -0.34862701 0 0 Z " fill="#0088CB" transform="translate(93,57)"/>
<path d="M0 0 C0.33 1.32 0.66 2.64 1 4 C0.01 4.33 -0.98 4.66 -2 5 C-2.33 9.62 -2.66 14.24 -3 19 C-4.65 19 -6.3 19 -8 19 C-8.10864945 16.93867858 -8.18588321 14.87568679 -8.25 12.8125 C-8.29640625 11.66394531 -8.3428125 10.51539062 -8.390625 9.33203125 C-7.92473219 5.35796562 -6.79815953 3.79815953 -4 1 C-1.75 0.1875 -1.75 0.1875 0 0 Z " fill="#0088CF" transform="translate(177,56)"/>
<path d="M0 0 C0.71285156 0.33773437 1.42570312 0.67546875 2.16015625 1.0234375 C8.48159799 4.01198969 8.48159799 4.01198969 15.125 6.125 C16.07375 6.41375 17.0225 6.7025 18 7 C18.33 7.99 18.66 8.98 19 10 C9.54243692 10.8004834 3.6224485 9.78136049 -4 4 C-2.68 3.67 -1.36 3.34 0 3 C0 2.01 0 1.02 0 0 Z " fill="#82C45E" transform="translate(30,32)"/>
<path d="M0 0 C1.65 0 3.3 0 5 0 C5 5.94 5 11.88 5 18 C3.35 18 1.7 18 0 18 C0 12.06 0 6.12 0 0 Z " fill="#0087CF" transform="translate(143,57)"/>
<path d="M0 0 C1.32 0 2.64 0 4 0 C4 5.94 4 11.88 4 18 C2.68 18 1.36 18 0 18 C0 12.06 0 6.12 0 0 Z " fill="#0087CE" transform="translate(95,57)"/>
<path d="M0 0 C2.625 0.375 2.625 0.375 5 1 C5.33 2.65 5.66 4.3 6 6 C2.86501708 7.85776765 0.62528568 8.20140476 -3 8 C-2.25 2.25 -2.25 2.25 0 0 Z " fill="#DE242D" transform="translate(53,33)"/>
<path d="M0 0 C0.99 0 1.98 0 3 0 C3 0.66 3 1.32 3 2 C4.65 2.33 6.3 2.66 8 3 C7.67 4.32 7.34 5.64 7 7 C4.03 7 1.06 7 -2 7 C-2.33 5.68 -2.66 4.36 -3 3 C-2.01 2.67 -1.02 2.34 0 2 C0 1.34 0 0.68 0 0 Z " fill="#E6202B" transform="translate(95,79)"/>
<path d="M0 0 C0 0.99 0 1.98 0 3 C-6.11774896 3.49940808 -9.02495953 2.24900602 -14 -1 C-14 -1.33 -14 -1.66 -14 -2 C-8.16605611 -3.10643764 -5.23420787 -3.27137992 0 0 Z " fill="#DADCDF" transform="translate(64,51)"/>
<path d="M0 0 C1.8871875 0.061875 1.8871875 0.061875 3.8125 0.125 C3.8125 2.125 3.8125 2.125 2.8125 3.75 C-0.38835893 5.95059052 -3.36643517 5.31292122 -7.1875 5.125 C-7.1875 4.135 -7.1875 3.145 -7.1875 2.125 C-4.09861478 0.06574319 -3.47814073 -0.1140374 0 0 Z " fill="#F0EFEF" transform="translate(23.1875,48.875)"/>
<path d="M0 0 C2.125 0.9375 2.125 0.9375 4 2 C3.6875 3.9375 3.6875 3.9375 3 6 C2.01 6.33 1.02 6.66 0 7 C-0.66 6.67 -1.32 6.34 -2 6 C-2 4.35 -2 2.7 -2 1 C-1.34 0.67 -0.68 0.34 0 0 Z " fill="#0088CD" transform="translate(145,48)"/>
<path d="M0 0 C1.32 0.66 2.64 1.32 4 2 C3.67 3.32 3.34 4.64 3 6 C1.68 6 0.36 6 -1 6 C-1.625 4.125 -1.625 4.125 -2 2 C-1.34 1.34 -0.68 0.68 0 0 Z " fill="#0187CB" transform="translate(96,48)"/>
<path d="M0 0 C2.31 0.33 4.62 0.66 7 1 C7 1.33 7 1.66 7 2 C5.329375 2.4021875 5.329375 2.4021875 3.625 2.8125 C-0.21840951 3.65809019 -0.21840951 3.65809019 -2 7 C-2.66 6.67 -3.32 6.34 -4 6 C-2.68 4.02 -1.36 2.04 0 0 Z " fill="#FEE3E1" transform="translate(52,31)"/>
<path d="M0 0 C0 0.66 0 1.32 0 2 C-2.97 2 -5.94 2 -9 2 C-9 1.34 -9 0.68 -9 0 C-5.93109813 -1.53445094 -3.29905734 -0.54984289 0 0 Z " fill="#0587D4" transform="translate(35,41)"/>
<path d="M0 0 C2.97 0.99 5.94 1.98 9 3 C9 3.33 9 3.66 9 4 C6.03 4 3.06 4 0 4 C0 2.68 0 1.36 0 0 Z " fill="#0F86B1" transform="translate(26,37)"/>
<path d="M0 0 C2.64 0 5.28 0 8 0 C8 0.66 8 1.32 8 2 C4.52176885 3.15941038 2.54104422 2.70820884 -1 2 C-0.67 1.34 -0.34 0.68 0 0 Z " fill="#D6D7D8" transform="translate(19,49)"/>
<path d="M0 0 C0 0.99 0 1.98 0 3 C-2.31 3 -4.62 3 -7 3 C-7.33 2.34 -7.66 1.68 -8 1 C-2.25 0 -2.25 0 0 0 Z " fill="#F9F9FC" transform="translate(64,51)"/>
<path d="M0 0 C0.66 0.66 1.32 1.32 2 2 C1.625 4.625 1.625 4.625 1 7 C0.34 7 -0.32 7 -1 7 C-1.04254356 5.00045254 -1.04080783 2.99958364 -1 1 C-0.67 0.67 -0.34 0.34 0 0 Z " fill="#8EC25A" transform="translate(62,32)"/>
<path d="M0 0 C1.125 3.75 1.125 3.75 0 6 C0.99 6.33 1.98 6.66 3 7 C1.35 7 -0.3 7 -2 7 C-1.125 1.125 -1.125 1.125 0 0 Z " fill="#CA3645" transform="translate(52,34)"/>
<path d="M0 0 C2.475 0.495 2.475 0.495 5 1 C5 1.99 5 2.98 5 4 C4.01 4 3.02 4 2 4 C1.01 4.495 1.01 4.495 0 5 C0 3.35 0 1.7 0 0 Z " fill="#0388D5" transform="translate(16,32)"/>
</svg>
