<?xml version="1.0" encoding="UTF-8"?>
<svg version="1.1" xmlns="http://www.w3.org/2000/svg" width="512" height="512">
<path d="M0 0 C1.03895048 -0.00507454 2.07790097 -0.01014909 3.1483348 -0.0153774 C4.29860111 -0.01587516 5.44886742 -0.01637292 6.63399029 -0.01688576 C7.84906991 -0.02126801 9.06414954 -0.02565027 10.31604975 -0.03016531 C13.69955859 -0.04124752 17.08302108 -0.04778319 20.46654141 -0.05234647 C24.11149893 -0.05829602 27.75643932 -0.0699074 31.40138531 -0.08063698 C40.20894941 -0.10517467 49.01651919 -0.11978953 57.82410696 -0.13269705 C60.31065607 -0.13640779 62.79720461 -0.14038111 65.28375316 -0.14444971 C80.71657045 -0.16968348 96.14938861 -0.19174206 111.58222198 -0.20417786 C115.15796506 -0.20710767 118.7337081 -0.21006932 122.3094511 -0.21308327 C123.19821175 -0.21382932 124.0869724 -0.21457537 125.00266518 -0.21534403 C139.40664147 -0.22800319 153.81049446 -0.26123307 168.21441308 -0.3028851 C182.99393357 -0.34527387 197.77339089 -0.36886929 212.55297202 -0.37409842 C220.85472873 -0.37751587 229.15629272 -0.38931028 237.45798969 -0.42220116 C244.52672411 -0.45016083 251.59522633 -0.46121905 258.66401175 -0.4500057 C262.27183038 -0.44480857 265.87916245 -0.447773 269.48691082 -0.47247124 C273.3957558 -0.49900786 277.30393254 -0.48693913 281.21284771 -0.47098732 C282.92820893 -0.49181045 282.92820893 -0.49181045 284.67822391 -0.51305425 C292.35911306 -0.43548075 292.35911306 -0.43548075 296.29520988 2.5500145 C299.52339882 7.14197317 299.24337574 10.83480997 299.21155071 16.30107689 C299.20942829 17.66188881 299.20942829 17.66188881 299.20726299 19.05019188 C299.20165542 21.95416594 299.18910165 24.85806354 299.17639446 27.76201439 C299.17138044 29.72815911 299.16681736 31.69430504 299.16272259 33.66045189 C299.15168353 38.48600229 299.13441381 43.31149536 299.11389446 48.13701439 C300.13695438 48.12606995 300.13695438 48.12606995 301.18068218 48.1149044 C302.07782436 48.10922951 302.97496655 48.10355461 303.89929485 48.09770775 C304.7875848 48.09041145 305.67587475 48.08311516 306.59108257 48.07559776 C318.27715509 48.3600895 329.06874845 55.1172807 337.36389446 62.88701439 C348.71685051 75.00769082 352.74696402 88.13481176 352.58679485 104.46196556 C352.10813089 118.7998322 346.07181842 130.59768938 336.37170696 141.03545189 C326.01996246 150.67081269 313.08400152 155.37379586 299.11389446 155.13701439 C299.16030071 156.33455345 299.20670696 157.53209251 299.25451946 158.76592064 C299.78611373 178.26375134 295.17356472 197.00150329 281.67639446 211.69951439 C274.94960106 218.65633254 267.9724269 223.90686812 259.42639446 228.38701439 C258.81578167 228.71669212 258.20516888 229.04636986 257.57605267 229.38603783 C245.32068254 235.50354791 232.05699453 235.5795831 218.70422649 235.54106712 C216.89562849 235.5467829 215.08703408 235.55375179 213.27844524 235.56186485 C208.4064017 235.57967837 203.53453942 235.57865025 198.6624732 235.57292247 C194.57738628 235.56981331 190.49233331 235.57594217 186.40725124 235.58196121 C176.76109658 235.59596619 167.11503056 235.59447892 157.46887493 235.58305931 C147.55654934 235.57158306 137.64449449 235.58565478 127.73220456 235.61245579 C119.18480227 235.63469101 110.63748447 235.64123258 102.09005535 235.63537937 C97.00133865 235.63202714 91.9127954 235.63430852 86.82410336 235.6516304 C82.03532419 235.66722274 77.24694268 235.66300934 72.45817852 235.64432526 C70.71365078 235.64067306 68.96909275 235.6436478 67.22459316 235.65421104 C53.19494384 235.73259393 39.51555785 234.21825788 26.86389446 227.57451439 C25.88368328 227.07069237 25.88368328 227.07069237 24.88366985 226.55669212 C8.18403816 217.50876523 -2.73839507 201.43049044 -9.05798054 183.88310814 C-11.60978213 174.45829375 -11.16200877 164.81406479 -10.88610554 155.13701439 C-12.09782429 155.16021751 -13.30954304 155.18342064 -14.55798054 155.20732689 C-27.69291017 155.18999849 -40.30950052 148.54005466 -49.63219929 139.62138939 C-61.99675146 125.99252426 -64.68605746 111.39388401 -64.06091022 93.70097923 C-63.19260886 80.96508404 -56.2784547 69.57696907 -47.10094929 60.98076439 C-38.00304007 53.40719622 -27.72470298 47.9987044 -15.67150593 48.09770775 C-14.32579266 48.10622009 -14.32579266 48.10622009 -12.95289326 48.1149044 C-12.27085331 48.1222007 -11.58881336 48.12949699 -10.88610554 48.13701439 C-10.9070528 46.92642357 -10.92800007 45.71583275 -10.9495821 44.46855736 C-11.02217094 39.96233078 -11.06797389 35.45615555 -11.1058321 30.94951439 C-11.1259046 29.00183473 -11.15316885 27.05421502 -11.18786335 25.10674095 C-11.23657406 22.30157718 -11.25911794 19.49721252 -11.27673054 16.69170189 C-11.29737568 15.82584465 -11.31802082 14.95998741 -11.33929157 14.06789207 C-11.34135724 8.45871829 -10.5544577 5.44233983 -6.88610554 1.13701439 C-4.41013732 -0.10096972 -2.77060392 0.00716058 0 0 Z M59.11389446 22.13701439 C59.02665269 33.61648441 59.02665269 33.61648441 58.96741009 45.09599876 C58.94946866 49.7773361 58.92823231 54.45849759 58.8875761 59.13969994 C58.85500678 62.91333698 58.83704666 66.68678548 58.82926273 70.46055222 C58.82371481 71.90109475 58.8128811 73.34162684 58.79670429 74.78208923 C58.77496488 76.79783778 58.77366936 78.8137756 58.77331829 80.82964134 C58.76665646 81.97769753 58.75999462 83.12575371 58.75313091 84.30859947 C58.89283409 87.13057135 58.89283409 87.13057135 60.43596172 89.05075645 C62.23043646 90.45960648 62.23043646 90.45960648 65.30139446 89.82451439 C66.22951946 89.59763939 67.15764446 89.37076439 68.11389446 89.13701439 C68.26084759 88.46154564 68.40780071 87.78607689 68.55920696 87.09013939 C69.70489136 82.53373936 70.42521919 79.77977798 73.92639446 76.51201439 C77.45589901 74.98948302 79.32525147 74.50557389 83.11389446 75.13701439 C88.69284183 78.29490913 88.69284183 78.29490913 90.11389446 81.13701439 C90.22113842 82.50961723 90.27002809 83.88704792 90.28747845 85.26372337 C90.30096828 86.11478157 90.31445812 86.96583977 90.32835674 87.84268761 C90.33879513 88.76352638 90.34923351 89.68436516 90.35998821 90.63310814 C90.39292102 92.57256587 90.42613276 94.51201889 90.45959759 96.45146751 C90.50706652 99.51727163 90.55150366 102.58305582 90.5907011 105.64897728 C90.63034996 108.60222359 90.68190698 111.55507706 90.73498821 114.50810814 C90.74340237 115.42692268 90.75181652 116.34573723 90.76048565 117.29239464 C90.77712765 118.146605 90.79376965 119.00081535 90.81091595 119.88091087 C90.82122341 120.63210701 90.83153088 121.38330315 90.84215069 122.1572628 C91.01086793 124.45524105 91.01086793 124.45524105 93.11389446 127.13701439 C96.11389446 127.63701439 96.11389446 127.63701439 99.11389446 127.13701439 C101.17945489 124.03867375 101.36301673 123.40521534 101.3544035 119.90393639 C101.35715282 119.04156868 101.35990215 118.17920097 101.36273479 117.29070091 C101.35554424 116.34771141 101.34835369 115.40472191 101.34094524 114.43315697 C101.3412373 113.43785469 101.34152935 112.44255241 101.34183025 111.41708946 C101.34043507 108.12182001 101.32486485 104.82677567 101.30920696 101.53154564 C101.30547751 99.24896938 101.30263022 96.96639152 101.30063152 94.6838131 C101.29298977 88.67172907 101.27333656 82.65974144 101.25122356 76.64769554 C101.23077685 70.51459113 101.22163232 64.38147117 101.21155071 58.24834251 C101.19009122 46.21118394 101.15490461 34.17412226 101.11389446 22.13701439 C87.25389446 22.13701439 73.39389446 22.13701439 59.11389446 22.13701439 Z M11.11389446 22.13701439 C11.04430541 41.09616394 10.990838 60.05527714 10.95845795 79.01452827 C10.94302051 87.81858494 10.92199106 96.62256055 10.8875761 105.42656517 C10.85757773 113.10441338 10.83829678 120.78220285 10.83162898 128.46010804 C10.82773432 132.52163039 10.81864726 136.58298478 10.79670429 140.64445305 C10.77617376 144.4759339 10.7700937 148.30717938 10.77457142 152.13871002 C10.77375356 153.53660745 10.76788725 154.93451367 10.75627804 156.33236313 C10.62093337 173.48653191 14.40148212 187.01537542 26.36780071 199.58623314 C36.8182167 209.2933763 48.41773207 213.24499336 62.51224041 213.27745628 C63.59753853 213.28191297 63.59753853 213.28191297 64.70476186 213.28645968 C67.11800676 213.29509906 69.53120176 213.29665089 71.94446087 213.2981472 C73.67954901 213.30277881 75.41463614 213.30780393 77.1497221 213.31319237 C81.85663361 213.32628678 86.56353087 213.33275574 91.27045774 213.33720303 C94.21507138 213.340139 97.15968117 213.34424484 100.10429287 213.3487072 C109.32857482 213.36237538 118.55284793 213.37204492 127.77713931 213.37590909 C138.40397043 213.38038595 149.03067267 213.39791945 159.65746462 213.42690969 C167.88530857 213.44857165 176.11311638 213.45861581 184.34098852 213.45995021 C189.24859318 213.46099516 194.15607659 213.46683652 199.06365108 213.48476982 C203.68479999 213.50132835 208.30573751 213.50336848 212.92690563 213.49463081 C214.61506119 213.49386454 216.30322848 213.49814853 217.99135494 213.50808907 C235.93420387 213.60747766 250.23668772 210.56865886 263.56311321 197.88310814 C272.8624011 187.87177676 277.24576486 176.4253795 277.23414898 162.83479881 C277.23552648 161.5922439 277.23690397 160.34968899 277.23832321 159.0694809 C277.23477708 157.70022751 277.23113919 156.33097435 277.22741985 154.96172142 C277.2271133 153.48918155 277.22724739 152.01664152 277.22778511 150.54410172 C277.22801035 146.60996704 277.22222535 142.67586294 277.21517467 138.74173546 C277.20946884 135.04658985 277.20921096 131.35145159 277.20849895 127.6563015 C277.20325702 116.85820176 277.18929582 106.06010769 277.17639446 95.26201439 C277.15576946 71.13076439 277.13514446 46.99951439 277.11389446 22.13701439 C226.29389446 22.13701439 175.47389446 22.13701439 123.11389446 22.13701439 C122.94346132 56.94540443 122.94346132 56.94540443 122.8160429 91.75395775 C122.77063274 98.50530052 122.77063274 98.50530052 122.74432659 101.67169762 C122.72976788 103.87043278 122.72294321 106.06922781 122.72235394 108.26801109 C122.71992647 111.6100783 122.69251124 114.95112995 122.6597929 118.29302025 C122.66481697 119.26305205 122.66984104 120.23308386 122.67501736 121.23251057 C122.54866313 129.50825231 120.18170685 137.23319693 114.11389446 143.13701439 C107.0856821 147.78726016 100.64470497 149.97937449 92.11389446 149.13701439 C84.56972688 147.48794506 78.59582507 144.28973705 73.80139446 138.19951439 C70.52639113 132.25598983 69.75949071 126.91417222 69.48889446 120.26201439 C69.43088665 119.08638939 69.43088665 119.08638939 69.37170696 117.88701439 C69.27822825 115.97070072 69.19500952 114.0538912 69.11389446 112.13701439 C68.35205853 112.11123314 67.59022259 112.08545189 66.80530071 112.05888939 C57.62955695 111.55485353 50.65800723 110.23946676 44.23889446 103.32451439 C39.46129448 97.72756754 37.74712351 92.17214732 37.68152142 84.9165554 C37.67132977 84.23278328 37.66113811 83.54901115 37.65063763 82.84451866 C37.62071657 80.60990039 37.61127436 78.37571218 37.60217571 76.14092064 C37.58531342 74.58149375 37.5671611 73.02208032 37.54777813 71.46268272 C37.50043996 67.37750519 37.47052637 63.29238227 37.4443388 59.20702171 C37.41445117 55.03058149 37.36794919 50.85432911 37.32287884 46.67803001 C37.2370299 38.49776856 37.17114065 30.31752606 37.11389446 22.13701439 C28.53389446 22.13701439 19.95389446 22.13701439 11.11389446 22.13701439 Z M-33.90563679 79.84404564 C-40.89743152 87.93908215 -42.57350286 96.74823596 -41.88610554 107.13701439 C-40.49118856 115.23777079 -36.0027634 122.04456514 -29.45251179 126.96513939 C-23.40969215 130.75454835 -18.10257563 133.13701439 -10.88610554 133.13701439 C-10.88610554 112.34701439 -10.88610554 91.55701439 -10.88610554 70.13701439 C-20.42086524 70.13701439 -26.98900762 73.31915476 -33.90563679 79.84404564 Z M299.11389446 70.13701439 C299.11389446 90.92701439 299.11389446 111.71701439 299.11389446 133.13701439 C308.0857385 132.01553388 316.34365094 129.7006595 322.61389446 122.76201439 C329.09926478 114.13398485 331.02707124 105.84368125 330.11389446 95.13701439 C328.1477684 86.50860129 323.00559423 79.43753324 315.68811321 74.50029564 C309.76720276 71.28661329 306.35354602 70.94142012 299.11389446 70.13701439 Z " fill="#FFFFFF" transform="translate(111.88610553741455,143.8629856109619)"/>
<path d="M0 0 C10.70831134 10.18504308 22.2236484 27.54881384 23.25 42.6875 C23 47 23 47 20 56 C31.22 56 42.44 56 54 56 C53.01 53.03 52.02 50.06 51 47 C49.38861816 32.72776084 59.04476 19.38417339 67.125 8.4375 C67.63998047 7.73407471 68.15496094 7.03064941 68.68554688 6.3059082 C69.18376953 5.64679443 69.68199219 4.98768066 70.1953125 4.30859375 C70.63891113 3.71876709 71.08250977 3.12894043 71.53955078 2.52124023 C74.83308237 -0.9093842 78.15237907 -1.25374968 82.8046875 -1.4609375 C89.58828765 -0.03662288 93.25505217 5.45965108 96.9375 10.8125 C97.45675049 11.55717529 97.97600098 12.30185059 98.51098633 13.0690918 C105.48112712 23.32504752 111.73653796 34.29472015 111 47 C110.01 49.97 109.02 52.94 108 56 C115.92 56 123.84 56 132 56 C132 63.26 132 70.52 132 78 C40.26 78 -51.48 78 -146 78 C-146 70.74 -146 63.48 -146 56 C-138.08 56 -130.16 56 -122 56 C-123.485 51.545 -123.485 51.545 -125 47 C-126.62260638 35.03327793 -119.77865641 23.38583196 -113 14 C-112.59523437 13.43796875 -112.19046875 12.8759375 -111.7734375 12.296875 C-110.46793882 10.4988828 -109.14507889 8.71549959 -107.8125 6.9375 C-107.39653564 6.37667725 -106.98057129 5.81585449 -106.55200195 5.23803711 C-104.31833789 2.33476553 -102.518103 0.18213924 -99 -1 C-92.70477033 -1.60921577 -90.11024903 -1.04588098 -85 3 C-82.81137896 5.46667767 -80.9302123 8.09757172 -79.0625 10.8125 C-78.54324951 11.55717529 -78.02399902 12.30185059 -77.48901367 13.0690918 C-70.51887288 23.32504752 -64.26346204 34.29472015 -65 47 C-65.99 49.97 -66.98 52.94 -68 56 C-57.11 56 -46.22 56 -35 56 C-35.99 53.03 -35.99 53.03 -37 50 C-37.9322182 41.45827977 -36.95899277 34.58342277 -33 27 C-32.42894531 25.8965625 -31.85789062 24.793125 -31.26953125 23.65625 C-19.430808 1.58712851 -19.430808 1.58712851 -9.98046875 -1.703125 C-6.21810649 -2.2671083 -3.30834465 -1.73907675 0 0 Z M-96 29 C-97.01577335 30.69900185 -98.0119898 32.40970451 -99 34.125 C-99.556875 35.07632813 -100.11375 36.02765625 -100.6875 37.0078125 C-102.1358283 40.30965619 -102.37062816 42.43395609 -102 46 C-100.5 48.5 -100.5 48.5 -98 50 C-94.3282913 50.61195145 -92.71186432 50.48706506 -89.625 48.375 C-87.51273422 45.28784232 -87.66769086 43.7003072 -88 40 C-89.26103487 36.96793903 -89.26103487 36.96793903 -91 34.125 C-91.8353125 32.67480469 -91.8353125 32.67480469 -92.6875 31.1953125 C-93.120625 30.47085938 -93.55375 29.74640625 -94 29 C-94.66 29 -95.32 29 -96 29 Z M-8 29 C-9.01577335 30.69900185 -10.0119898 32.40970451 -11 34.125 C-11.556875 35.07632813 -12.11375 36.02765625 -12.6875 37.0078125 C-14.1358283 40.30965619 -14.37062816 42.43395609 -14 46 C-12.5 48.5 -12.5 48.5 -10 50 C-6.3282913 50.61195145 -4.71186432 50.48706506 -1.625 48.375 C0.48726578 45.28784232 0.33230914 43.7003072 0 40 C-1.26103487 36.96793903 -1.26103487 36.96793903 -3 34.125 C-3.8353125 32.67480469 -3.8353125 32.67480469 -4.6875 31.1953125 C-5.120625 30.47085938 -5.55375 29.74640625 -6 29 C-6.66 29 -7.32 29 -8 29 Z M80 29 C78.98422665 30.69900185 77.9880102 32.40970451 77 34.125 C76.443125 35.07632813 75.88625 36.02765625 75.3125 37.0078125 C73.8641717 40.30965619 73.62937184 42.43395609 74 46 C75.5 48.5 75.5 48.5 78 50 C81.6717087 50.61195145 83.28813568 50.48706506 86.375 48.375 C88.48726578 45.28784232 88.33230914 43.7003072 88 40 C86.73896513 36.96793903 86.73896513 36.96793903 85 34.125 C84.1646875 32.67480469 84.1646875 32.67480469 83.3125 31.1953125 C82.879375 30.47085938 82.44625 29.74640625 82 29 C81.34 29 80.68 29 80 29 Z " fill="#FFFFFF" transform="translate(263,392)"/>
<path d="M0 0 C7.26 0 14.52 0 22 0 C22 21.78 22 43.56 22 66 C14.74 66 7.48 66 0 66 C0 44.22 0 22.44 0 0 Z " fill="#FFFFFF" transform="translate(309,64)"/>
<path d="M0 0 C7.26 0 14.52 0 22 0 C22 16.5 22 33 22 50 C14.74 50 7.48 50 0 50 C0 33.5 0 17 0 0 Z " fill="#FFFFFF" transform="translate(170,80)"/>
<path d="M0 0 C7.26 0 14.52 0 22 0 C22 11.88 22 23.76 22 36 C14.74 36 7.48 36 0 36 C0 24.12 0 12.24 0 0 Z " fill="#FFFFFF" transform="translate(240,94)"/>
<path d="M0 0 C7.26 0 14.52 0 22 0 C22 11.55 22 23.1 22 35 C14.74 35 7.48 35 0 35 C0 23.45 0 11.9 0 0 Z " fill="#FFFFFF" transform="translate(240,48)"/>
</svg>
