<?xml version="1.0" encoding="UTF-8"?>
<svg version="1.1" xmlns="http://www.w3.org/2000/svg" width="512" height="512">
<path d="M0 0 C5.32798734 3.80570524 10.1194466 8.00622194 14.625 12.75 C20.0708588 18.37913289 26.61697829 21.7128954 34.46418381 22.13142776 C35.33280674 22.13440243 36.20142967 22.13737709 37.09637451 22.14044189 C38.09993988 22.14615204 39.10350525 22.15186218 40.13748169 22.15774536 C41.22745453 22.15886322 42.31742737 22.15998108 43.44042969 22.16113281 C44.59713165 22.16609772 45.75383362 22.17106262 46.94558716 22.17617798 C50.7710225 22.190779 54.59641637 22.19759826 58.421875 22.203125 C60.41070475 22.20742377 62.3995345 22.21172308 64.38836408 22.2160995 C69.92997866 22.22789947 75.47158324 22.23544388 81.0132091 22.2388947 C88.16155631 22.24337149 95.30971192 22.26090654 102.4580009 22.2898953 C107.99620472 22.31156882 113.53435486 22.32160201 119.0726006 22.32293582 C122.37440081 22.32397989 125.67598049 22.3312667 128.97774506 22.34775543 C132.66597402 22.3648592 136.35373937 22.36292472 140.04199219 22.35644531 C141.66480606 22.37026749 141.66480606 22.37026749 143.32040405 22.3843689 C151.20983324 22.34107416 158.77443618 21.31905991 165.125 16.25 C166.10726562 15.46689453 166.10726562 15.46689453 167.109375 14.66796875 C168.95729609 13.03767473 170.66723101 11.33810094 172.375 9.5625 C181.70244093 0.00240182 191.80659327 -5.27474425 205.125 -5.5625 C205.85775146 -5.58948975 206.59050293 -5.61647949 207.34545898 -5.64428711 C220.74825469 -5.55416264 234.40084858 1.1091889 246.70898438 5.91918945 C248.99509703 6.81058824 251.28628957 7.68788968 253.578125 8.56445312 C274.18446632 16.5272975 294.58557798 25.11123302 305.1875 45.75 C307.37715128 50.9910112 308.93471534 56.14561971 310.18261719 61.68188477 C310.3912225 62.60706941 310.5998278 63.53225405 310.81475449 64.48547459 C314.54467635 81.60047528 317.34008819 98.92037249 320.33962727 116.1743896 C321.27212487 121.53154126 322.21087941 126.88759667 323.14886475 132.24378967 C324.71912603 141.21551765 326.28534162 150.18794367 327.84863281 159.16088867 C330.05218927 171.80874827 332.26349759 184.45524387 334.47615099 197.1015147 C336.01359129 205.89031261 337.54922132 214.67942697 339.08449078 223.46860433 C339.45550513 225.59257541 339.82656652 227.71653828 340.19767475 229.84049296 C341.25338302 235.88303173 342.30795394 241.92576676 343.36071014 247.96882057 C343.67921213 249.79621575 343.9980729 251.62354845 344.31732178 253.45081329 C344.75343747 255.94745597 345.18820579 258.44432964 345.62261963 260.94126892 C345.74858843 261.66071637 345.87455723 262.38016381 346.00434327 263.12141269 C350.00273598 286.16077568 350.2921183 308.83897639 337 329 C327.40129101 341.51166273 314.31018749 351.09767614 298.72265625 354.52734375 C285.01322644 356.26799538 270.89673427 356.35593788 258 351 C257.36545898 350.73687012 256.73091797 350.47374023 256.07714844 350.20263672 C237.05883432 342.08931923 224.24844675 327.83666639 211.47265625 312.0234375 C208.38282128 308.24534545 205.23656836 304.51994094 202.0625 300.8125 C201.49418457 300.13985107 200.92586914 299.46720215 200.34033203 298.77416992 C198.93737302 297.14401878 197.47358025 295.56660397 196 294 C193.00351373 294 190.96730073 295.51004711 188.3125 296.875 C175.47363617 302.84196094 162.30914454 303.1419547 148.80859375 299.02734375 C141.33783936 296.21269171 132.91286818 291.93655198 128.72175598 284.83370972 C126.32156421 280.97325253 124.50304642 278.43284949 120.02519226 277.14331055 C116.32351072 276.80815168 112.71663553 276.75252612 109 276.8046875 C107.63670453 276.79861419 106.27341861 276.78987062 104.91015625 276.77859497 C102.06155027 276.76537272 99.21549511 276.78444195 96.3671875 276.82666016 C92.73060143 276.87795996 89.09999012 276.84840697 85.46362305 276.79450798 C82.65091599 276.76184959 79.83960661 276.77239362 77.02685547 276.79565811 C75.03999916 276.80450931 73.05308663 276.77736341 71.06640625 276.7494812 C64.3324189 276.79770965 64.3324189 276.79770965 58.66423035 279.99731445 C56.90690242 282.25582011 55.45214163 284.53899861 54 287 C43.77752126 297.23878253 31.27224871 301.38266277 17 302 C6.27799108 301.74220306 -1.87785672 298.18492642 -11 293 C-16.27544501 298.65014952 -21.51173806 304.29908114 -26.375 310.3125 C-43.01284944 330.87914394 -60.48418151 350.23063101 -88 355 C-106.79182502 356.4828683 -125.11525248 354.67202334 -140.30859375 342.44921875 C-153.73809652 330.93408612 -162.13279242 315.93210497 -164.33847046 298.29324341 C-165.6127478 278.93539504 -161.76922972 260.05844241 -158.30237198 241.12785721 C-157.46351419 236.52088397 -156.64918496 231.90957657 -155.83276367 227.29858398 C-154.76216562 221.2611848 -153.68867715 215.22434043 -152.60493469 209.18928528 C-149.73928133 193.22668754 -146.94576998 177.25208312 -144.17994118 161.27194786 C-143.47054761 157.17354083 -142.75983929 153.07536259 -142.04875183 148.97724915 C-141.93159756 148.302041 -141.81444328 147.62683285 -141.69373888 146.93116385 C-141.22102212 144.20683931 -140.74825161 141.4825241 -140.2754482 138.75821459 C-139.92216981 136.72261213 -139.56891321 134.68700588 -139.21566772 132.65139771 C-139.04146776 131.64761327 -139.04146776 131.64761327 -138.86374861 130.62355036 C-138.16423527 126.59204226 -137.46584664 122.56034102 -136.76818144 118.52851272 C-135.54659795 111.46939875 -134.31887602 104.41137772 -133.08502197 97.35439682 C-132.6729903 94.99207507 -132.2629987 92.62939639 -131.85525513 90.26633072 C-125.73499469 54.81480775 -125.73499469 54.81480775 -120.1875 44.5 C-119.83840576 43.83476318 -119.48931152 43.16952637 -119.12963867 42.48413086 C-112.14882258 29.57366404 -101.0724057 21.97885204 -87.80859375 16.2109375 C-87.03375641 15.87061493 -86.25891907 15.53029236 -85.46060181 15.17965698 C-77.20279134 11.59128268 -68.82908229 8.30956786 -60.41894531 5.09765625 C-57.83901728 4.11124231 -55.26318066 3.11463246 -52.6875 2.1171875 C-51.01846066 1.47595963 -49.34919802 0.83531259 -47.6796875 0.1953125 C-46.54670731 -0.24371902 -46.54670731 -0.24371902 -45.39083862 -0.69161987 C-30.89140951 -6.20016134 -13.78845156 -8.57550162 0 0 Z M-53.69311523 25.15991211 C-56.55604737 26.30990808 -59.42486637 27.44408761 -62.29492188 28.57617188 C-85.6934399 37.14510834 -85.6934399 37.14510834 -102 55 C-105.1607052 62.88952268 -106.96267372 70.93837918 -108.390625 79.2890625 C-108.6084816 80.51742828 -108.8263382 81.74579407 -109.05079651 83.01138306 C-109.6645762 86.47525452 -110.26648339 89.94109482 -110.86584854 93.40748596 C-111.52497707 97.21230494 -112.19216798 101.01571249 -112.8581543 104.81933594 C-113.78065843 110.09197557 -114.70124089 115.3649392 -115.61747742 120.63867188 C-117.96074935 134.11597822 -120.34486411 147.58575476 -122.74555397 161.0529232 C-124.94882597 173.41432742 -127.13810273 185.77817005 -129.31912804 198.14351845 C-130.69842138 205.96113642 -132.08362196 213.77761325 -133.48327637 221.59161377 C-134.69605235 228.36284621 -135.89580878 235.13624148 -137.08034986 241.91247237 C-137.69484294 245.42536813 -138.31501152 248.93699687 -138.9512043 252.44603348 C-145.55296499 285.37249276 -145.55296499 285.37249276 -135.75 316.3125 C-128.85674723 325.42561383 -120.30730292 331.52940831 -109 334 C-92.52371566 335.60813746 -79.05185071 332.63237499 -66 322 C-65.24203125 321.39285156 -64.4840625 320.78570312 -63.703125 320.16015625 C-58.68505171 315.92940135 -54.58784748 311.25408747 -50.515625 306.12109375 C-48.15371715 303.15526718 -45.68489088 300.29208601 -43.18994141 297.43774414 C-42.06497521 296.14781975 -40.94740311 294.85140867 -39.83740234 293.54858398 C-37.3256726 290.60628267 -34.81683588 287.77111106 -31.9921875 285.125 C-29.32832316 282.45318383 -27.46647302 280.48287342 -26 277 C-26.59135063 272.76923412 -27.75136228 269.35035331 -29.4921875 265.48046875 C-31.72760943 260.32046632 -32.13047831 255.69922118 -32.0625 250.125 C-32.05347656 249.15820312 -32.04445313 248.19140625 -32.03515625 247.1953125 C-32.02355469 246.47085938 -32.01195312 245.74640625 -32 245 C-33.17175781 244.63648438 -34.34351563 244.27296875 -35.55078125 243.8984375 C-49.12306219 239.59707736 -60.16782416 234.45251833 -71 225 C-71.61488281 224.48050781 -72.22976562 223.96101562 -72.86328125 223.42578125 C-87.27462832 210.27335645 -95.07678709 189.25755419 -96.16015625 170.1796875 C-96.77638668 148.37048879 -89.3149327 127.20378971 -74.32299805 111.22949219 C-59.58680246 96.1719155 -40.60143708 88.12407331 -19.72363281 87.52905273 C1.34160012 87.34281479 19.9158717 93.07147653 36 107 C36.8146875 107.61875 37.629375 108.2375 38.46875 108.875 C51.19958909 119.56261801 60.03041788 138.67230103 62 155 C63.47495309 173.11755991 61.54964315 188.89356767 52.46679688 204.77514648 C50.37907928 208.30750283 50.37907928 208.30750283 50.5703125 212.234375 C52.06183975 214.0763704 53.59620573 215.80150859 55.25 217.5 C65.53151276 229.00499131 66.92894687 241.00525623 68 256 C83.84 256 99.68 256 116 256 C116.33 251.38 116.66 246.76 117 242 C120.20828801 228.79666087 125.69699924 217.98372697 137 210 C150.47162315 202.11374342 164.25579119 199.7702473 179.62109375 202.6875 C192.38386338 206.67067908 202.93755172 213.91276013 209.30224609 225.765625 C212.63174393 232.31247556 215.41271786 238.59513818 216 246 C216.07992188 246.74765625 216.15984375 247.4953125 216.2421875 248.265625 C216.77988864 257.81772756 213.73890354 268.29273364 210 277 C211.10794922 278.28970703 211.10794922 278.28970703 212.23828125 279.60546875 C216.89694384 285.03231506 221.5542057 290.46002234 226.16894531 295.92431641 C227.0615944 296.98102169 227.95549028 298.03667491 228.85058594 299.09130859 C231.25567486 301.92593917 233.64117346 304.77446785 236.00390625 307.64453125 C246.35734536 320.12956076 259.10681102 332.48760786 276.15893555 334.21923828 C290.25964231 334.93650314 301.76684546 333.19076281 313 324 C321.07124945 316.44947632 326.61842812 306.0970492 327.39952087 294.97111511 C327.95127415 278.04308624 324.62625138 261.58413893 321.64236951 245.00672174 C320.87291564 240.70964487 320.12412213 236.4089632 319.37278748 232.10868835 C317.9422825 223.9392424 316.4935789 215.773136 315.03816408 207.60809535 C313.41647175 198.50489523 311.81581323 189.39804002 310.21675038 180.29084229 C307.46853567 164.64138571 304.69770078 148.99608551 301.90702367 133.3541472 C300.2161706 123.87538184 298.54039415 114.39438123 296.89902973 104.90691471 C296.08981828 100.23323713 295.27197042 95.56109584 294.45265007 90.88918114 C294.09383153 88.82959263 293.73916451 86.76927523 293.38925362 84.70815468 C289.5809992 60.25435501 289.5809992 60.25435501 274.57421875 41.609375 C268.87891979 37.70312649 262.91830318 35.17177744 256.5 32.6875 C255.33597656 32.22674072 254.17195313 31.76598145 252.97265625 31.29125977 C250.54145677 30.33196314 248.10782459 29.37881038 245.671875 28.43164062 C242.05428508 27.02116541 238.44844383 25.58369351 234.84375 24.140625 C232.56299453 23.2383323 230.28176185 22.3372447 228 21.4375 C226.95779297 21.02008545 225.91558594 20.6026709 224.84179688 20.17260742 C212.26855058 15.20201533 212.26855058 15.20201533 199.09765625 15.9140625 C192.70703648 19.22242804 187.34768962 24.49937512 182.4375 29.6875 C172.70894854 39.69467346 160.31100908 42.25125847 147 44 C146.97421875 45.11117187 146.9484375 46.22234375 146.921875 47.3671875 C146.57464392 57.72585957 146.10587408 66.88094506 138.75 74.875 C132.36393022 80.69799696 125.54160127 83.10637339 116.99731445 83.16113281 C115.17941154 83.17554413 115.17941154 83.17554413 113.32478333 83.19024658 C112.01748764 83.19449646 110.71019196 83.19874634 109.36328125 83.203125 C108.69416403 83.20595238 108.02504681 83.20877975 107.33565331 83.21169281 C103.79155459 83.22666432 100.24749634 83.23590538 96.70336914 83.24023438 C93.06318852 83.24570209 89.42338514 83.26969943 85.78332233 83.29820633 C82.96667953 83.31694457 80.15012536 83.32204431 77.33342552 83.32357025 C75.34555589 83.32802467 73.35773392 83.34661937 71.36994934 83.36553955 C59.84751136 83.33737299 52.53219026 81.55658263 44.16796875 73.42578125 C36.77051248 65.14862748 36.86883846 54.59754282 36 44 C34.98421875 43.85304688 33.9684375 43.70609375 32.921875 43.5546875 C18.37251326 41.2652661 8.71385002 36.2116383 -2 26 C-19.69553626 9.86287745 -33.44746821 17.0210892 -53.69311523 25.15991211 Z M57 44 C56.83159226 52.72756814 56.83159226 52.72756814 60 60 C63.11254609 62.94568095 65.28333563 63.38050101 69.51538086 63.40405273 C71.17246315 63.42307899 71.17246315 63.42307899 72.86302185 63.44248962 C74.05162308 63.43955399 75.2402243 63.43661835 76.46484375 63.43359375 C77.69030411 63.4388356 78.91576447 63.44407745 80.17835999 63.44947815 C82.76985924 63.45590145 85.36138763 63.45455742 87.95288086 63.44604492 C91.91898519 63.4375397 95.88364753 63.46628767 99.84960938 63.49804688 C102.36718707 63.49965906 104.88476731 63.49908103 107.40234375 63.49609375 C109.18220924 63.51294472 109.18220924 63.51294472 110.99803162 63.53013611 C117.39963429 63.53161132 117.39963429 63.53161132 123.20532227 61.13696289 C127.76826384 55.70376637 127 51.20138634 127 44 C103.9 44 80.8 44 57 44 Z M-40 112 C-41.40765625 112.61875 -41.40765625 112.61875 -42.84375 113.25 C-57.75161598 120.62018094 -67.01603682 132.80373014 -73 148.01953125 C-77.84752209 162.46741935 -76.97107495 178.0060656 -70.22265625 191.78515625 C-61.20802213 208.11518036 -49.86956683 217.93348512 -32 224 C-29.61140227 224.54469712 -27.44938192 224.83299669 -25 225 C-24.67128906 224.5153125 -24.34257812 224.030625 -24.00390625 223.53125 C-16.51511832 212.97794452 -7.07869913 205.39523664 5.66918945 202.32666016 C9.32169821 201.81476566 12.86177149 202.17649283 16.52807617 202.43701172 C25.74629902 203.2471041 25.74629902 203.2471041 33.9140625 199.828125 C35.85646497 196.59363982 36.95688582 193.62281577 38 190 C38.41765625 188.92878906 38.8353125 187.85757813 39.265625 186.75390625 C44.62354746 171.59098568 43.25514594 155.59534053 37 141 C29.57998903 125.94797775 16.64093614 115.35164788 1.0625 109.5625 C-12.13346379 105.8943079 -27.46158746 106.48860987 -40 112 Z M-6 233 C-10.96361005 240.21755704 -12.94173452 247.94599235 -11.58984375 256.63671875 C-9.11783078 266.30273353 -3.30179766 272.7375634 5 278 C11.30768185 281.39644407 18.83404807 281.65274692 25.671875 279.84765625 C34.68603165 276.56565626 40.45265481 271.44726616 45.02734375 263.1328125 C48.36041077 255.72941018 48.11844696 247.22910944 45.375 239.6875 C41.55036721 231.44475691 36.64265648 226.94537064 28.35546875 223.10546875 C15.25888317 218.79076128 2.91656927 222.85958789 -6 233 Z M143.5 231.25 C137.71820443 239.06739815 135.75506679 247.38352614 137 257 C139.02404456 264.97109682 142.73759577 271.34650328 149.7734375 275.7265625 C158.26568045 280.24007197 164.97022649 282.04286256 174.48046875 279.8515625 C183.15196788 276.92073024 189.43546827 270.5984707 193.8125 262.75 C196.54377214 254.12493008 196.79526848 246.32465823 193 238 C188.45313069 230.07828049 181.84235438 224.42346009 173 222 C161.73644215 220.58182807 151.53286799 222.79540644 143.5 231.25 Z " fill="#FFFFFF" transform="translate(164,81)"/>
<path d="M0 0 C6.83290243 4.76854498 11.10814067 10.49557302 14.3125 18.125 C16.22520713 28.9057129 15.70639236 38.46631785 10 48 C3.86393934 55.98080384 -4.11665835 60.4302928 -14 62 C-24.18833899 62.82164024 -33.2118026 59.62444376 -41 53 C-48.05359811 45.42277234 -51.38257661 36.79361197 -51.2109375 26.4609375 C-50.36294615 16.56770506 -45.84358666 9.44206288 -38.75 2.75 C-27.83771776 -5.93238108 -12.06505128 -7.22624096 0 0 Z M-28 22 C-29.88412896 25.11290871 -30.00290727 26.83719308 -29.9375 30.5 C-28.62952921 35.38309095 -26.10239009 37.45824726 -22.125 40.375 C-18.74496055 41.36912925 -16.39131751 40.87706487 -13 40 C-9.58459433 37.88824247 -7.30052086 35.90156258 -6 32 C-5.59890546 27.74839783 -5.73621744 25.4993027 -7.75 21.6875 C-11.12108906 17.6609214 -12.646294 17.15283777 -17.875 16.5625 C-22.72424062 16.68915927 -24.73552445 18.50234763 -28 22 Z " fill="#FFFFFF" transform="translate(345,197)"/>
<path d="M0 0 C6.52985563 6.73737222 9.14615868 14.55241636 9.40625 23.83984375 C9.02688402 33.86933172 6.01990347 40.98707179 -1.03125 48.21484375 C-10.63856178 56.03436012 -20.04271216 57.14336776 -32.03125 56.21484375 C-39.23459117 54.64029143 -45.32238076 50.89170324 -50.03125 45.21484375 C-55.81821222 35.59512223 -59.00862782 26.55372852 -56.34765625 15.33203125 C-52.89593444 5.04847831 -47.56250162 -1.57221538 -38.03125 -6.78515625 C-34.90625 -8.09765625 -34.90625 -8.09765625 -32.03125 -8.78515625 C-31.020625 -9.03265625 -30.01 -9.28015625 -28.96875 -9.53515625 C-17.64750304 -10.25396558 -8.51300763 -7.48162402 0 0 Z M-33.03125 15.21484375 C-35.89935119 19.32578878 -36.5063991 22.49051421 -35.68359375 27.31640625 C-34.38211848 31.10393309 -31.52893921 33.46599914 -28.03125 35.21484375 C-23.25869077 35.61255702 -20.94642328 35.68937804 -16.65625 33.46484375 C-12.91990966 30.26226632 -12.19743846 28.7105399 -11.65625 23.83984375 C-12.10064355 19.54403943 -13.32716294 17.53700786 -16.03125 14.21484375 C-21.30576635 10.69849951 -28.17339173 10.92849822 -33.03125 15.21484375 Z " fill="#FFFFFF" transform="translate(430.03125,233.78515625)"/>
<path d="M0 0 C7.75426292 5.54511344 13.46927573 12.30846257 15.73046875 21.7109375 C16.79301105 32.21697374 15.78551085 40.76645294 9.60546875 49.3984375 C3.77334066 56.45124356 -3.56834911 61.16615787 -12.78515625 62.046875 C-20.82457922 62.13096938 -27.18204575 61.64268128 -34.26953125 57.7109375 C-35.23632812 57.185 -35.23632812 57.185 -36.22265625 56.6484375 C-43.55499325 52.05775695 -47.68013384 44.45565021 -49.796875 36.2421875 C-51.70035244 26.04835792 -49.4418275 16.96777742 -43.58203125 8.3984375 C-33.0066546 -4.53585775 -14.63402116 -8.31192252 0 0 Z M-27.08203125 21.3984375 C-28.80381959 24.75139374 -29.51436595 27.97360774 -29.26953125 31.7109375 C-27.31461837 35.54835908 -25.16912109 38.76114258 -21.26953125 40.7109375 C-16.98014268 41.1194507 -14.40698142 41.19119424 -10.45703125 39.5234375 C-6.76678559 36.46580538 -5.43904575 34.04283715 -4.83203125 29.2734375 C-5.360735 24.9682784 -6.44295893 22.98381071 -9.26953125 19.7109375 C-15.8941302 15.57056315 -21.28440578 16.00064827 -27.08203125 21.3984375 Z " fill="#FFFFFF" transform="translate(411.26953125,144.2890625)"/>
<path d="M0 0 C3.47998516 2.00292479 5.7068445 4.12053349 7 8 C7.03954234 10.33299825 7.04401732 12.66708189 7 15 C8.19625 14.896875 9.3925 14.79375 10.625 14.6875 C14.18574481 14.70647377 15.16602189 15.09659455 18.4375 17 C21.2055301 20.2406206 21.95307689 21.92486891 22.171875 26.07421875 C21.82741841 29.93369829 19.85585578 32.08074749 17.3125 34.8125 C13.82364143 36.60407602 10.89238853 36.19461943 7 36 C7.0928125 37.5778125 7.0928125 37.5778125 7.1875 39.1875 C6.94662757 44.08523934 5.59580506 46.3472019 2.25 49.8125 C-1.04677442 51.55246428 -3.32056389 51.44406988 -7 51 C-12.53846154 47.92307692 -12.53846154 47.92307692 -14 45 C-14.06950541 43.45976004 -14.08452357 41.91665012 -14.0625 40.375 C-14.04896484 39.14910156 -14.04896484 39.14910156 -14.03515625 37.8984375 C-14.02355469 37.27195312 -14.01195312 36.64546875 -14 36 C-15.19625 36.0825 -16.3925 36.165 -17.625 36.25 C-22.08253875 36.26583495 -24.5439542 34.8659892 -28 32 C-29.73631636 28.52736727 -29.60190402 24.78806987 -29 21 C-26.81840855 18.24430553 -25.12822506 16.56411253 -22 15 C-19.3276379 14.86584528 -16.67749512 14.95681459 -14 15 C-14.05800781 14.40832031 -14.11601562 13.81664062 -14.17578125 13.20703125 C-14.54776968 6.6919196 -14.54776968 6.6919196 -11.625 3 C-7.52965369 -0.12026386 -5.18869417 -0.51886942 0 0 Z " fill="#FFFFFF" transform="translate(151,222)"/>
</svg>
