<?xml version="1.0" encoding="UTF-8"?>
<svg version="1.1" xmlns="http://www.w3.org/2000/svg" width="512" height="512">
<path d="M0 0 C1.8421257 -0.00513611 1.8421257 -0.00513611 3.72146606 -0.01037598 C7.12505465 -0.01583503 10.52771924 -0.00332897 13.93119626 0.01672715 C17.65960611 0.03422119 21.38799346 0.02834691 25.11643314 0.02545547 C32.35067001 0.02333063 39.58470793 0.04178221 46.8188937 0.06746079 C55.18840983 0.09627905 63.55780674 0.09944076 71.92738342 0.1026001 C94.02047318 0.12359507 116.1135187 0.17943961 138.20655823 0.23101807 C212.23999573 0.35476807 212.23999573 0.35476807 287.76905823 0.48101807 C287.76905823 129.51101807 287.76905823 258.54101807 287.76905823 391.48101807 C277.53905823 391.48101807 267.30905823 391.48101807 256.76905823 391.48101807 C256.76905823 387.52101807 256.76905823 383.56101807 256.76905823 379.48101807 C262.04905823 379.48101807 267.32905823 379.48101807 272.76905823 379.48101807 C272.76905823 376.84101807 272.76905823 374.20101807 272.76905823 371.48101807 C261.12478157 370.0998507 249.44207399 370.35498655 237.73707581 370.38336182 C235.40823905 370.3852834 233.07940189 370.38674606 230.75056458 370.38778687 C225.75306232 370.39093722 220.75557715 370.39718993 215.75808144 370.40585327 C208.51424544 370.41828011 201.27041618 370.42450113 194.02657124 370.42878664 C182.2463119 370.43583865 170.46605947 370.44662614 158.68580627 370.46051025 C157.63053882 370.46175197 157.63053882 370.46175197 156.55395284 370.46301877 C150.84980037 370.46975923 145.14564812 370.47668211 139.4414959 370.4836216 C134.46238591 370.48967301 129.48327585 370.49565438 124.50416565 370.50152588 C123.45247454 370.50276807 123.45247454 370.50276807 122.37953714 370.50403535 C110.64615842 370.51777017 98.91277957 370.52750322 87.1793949 370.53443623 C79.3246595 370.53939426 71.46995033 370.54921775 63.61522543 370.56286621 C58.71092186 370.57037211 53.80662179 370.57365071 48.90231323 370.57583237 C46.64379856 370.57769051 44.38528448 370.58126326 42.12677574 370.58676529 C29.63327467 370.61621955 17.23071922 370.41065704 4.76905823 369.48101807 C4.76905823 365.19101807 4.76905823 360.90101807 4.76905823 356.48101807 C93.20905823 356.48101807 181.64905823 356.48101807 272.76905823 356.48101807 C272.76905823 353.84101807 272.76905823 351.20101807 272.76905823 348.48101807 C261.07125625 347.09619386 249.32831487 347.34019602 237.5693512 347.35162354 C235.22243218 347.35026684 232.87551338 347.3484854 230.52859497 347.34631348 C224.17912059 347.3417696 217.82966254 347.34351657 211.48018789 347.34669256 C205.49114992 347.34897565 199.50211342 347.34722814 193.51307549 347.34576537 C180.92106823 347.34291959 168.32906828 347.34618274 155.73706223 347.35156573 C144.96940359 347.35602672 134.20175574 347.35526191 123.43409729 347.35064697 C110.89324616 347.34527448 98.35240143 347.34320071 85.81154931 347.34625924 C79.1869086 347.34783145 72.56227388 347.34804636 65.93763351 347.34472275 C59.70115617 347.34181233 53.46469899 347.34387742 47.2282238 347.349617 C44.95239355 347.35092806 42.67656158 347.35057899 40.40073204 347.34835434 C30.12076289 347.33924005 19.84950075 347.37041192 9.57914734 347.85629272 C8.85374941 347.88560218 8.12835148 347.91491163 7.38097179 347.94510925 C1.86136336 348.25480456 -2.4684457 349.28355135 -6.23094177 353.48101807 C-9.21332492 358.1805309 -9.67574217 361.97356618 -8.78953552 367.33648682 C-7.87736771 370.83844578 -6.73476618 372.85200244 -4.23094177 375.48101807 C1.74893473 378.33533748 7.63261783 378.91808941 14.16543579 378.87974548 C15.06742358 378.88639231 15.96941137 378.89303914 16.89873213 378.89988738 C19.89737283 378.91842295 22.8956112 378.91591847 25.89430237 378.91339111 C28.0532436 378.92241403 30.21217972 378.93274255 32.37110901 378.9442749 C38.2154446 378.97180865 44.05968287 378.98112455 49.90407491 378.98712897 C56.0179982 378.99652202 62.13184908 379.02272621 68.24572754 379.0471344 C79.81580994 379.09077739 91.38587828 379.11933793 102.95601791 379.14245778 C116.13135023 379.1695212 129.30660963 379.21343205 142.48188984 379.2587465 C169.57757308 379.35156131 196.67327919 379.42325659 223.76905823 379.48101807 C223.76905823 383.44101807 223.76905823 387.40101807 223.76905823 391.48101807 C194.63873798 391.64083305 165.50846065 391.76465093 136.37778936 391.83847537 C132.93578321 391.84722993 129.49377793 391.85629023 126.05177307 391.86553955 C125.36655478 391.86737572 124.68133648 391.8692119 123.975354 391.87110371 C112.89188136 391.90153246 101.80866383 391.95670737 90.72534235 392.02108764 C79.34607321 392.0866339 67.96699274 392.12492377 56.58752286 392.13963753 C50.19856785 392.14875761 43.81019072 392.17016825 37.42142105 392.22112846 C31.40488833 392.26872957 25.38917018 392.28328079 19.37246704 392.27277184 C17.16741887 392.27469366 14.96234277 392.28856563 12.75745773 392.31545639 C-7.37293682 392.54887242 -7.37293682 392.54887242 -14.5387516 386.32002354 C-23.03501283 377.08662226 -24.67922928 368.61096844 -24.59170532 356.25665283 C-24.59301501 354.91743601 -24.59564442 353.57821994 -24.59947282 352.23900795 C-24.60615781 348.57427497 -24.59421275 344.90980669 -24.57913864 341.24510741 C-24.5661537 337.2874745 -24.57056947 333.32985587 -24.57284546 329.37220764 C-24.57441664 322.52040078 -24.56502366 315.66867979 -24.54813194 308.81689453 C-24.52372547 298.91044161 -24.51593499 289.00403012 -24.51216797 279.09755039 C-24.50560607 263.02401479 -24.485652 246.95052493 -24.45726013 230.87701416 C-24.42971279 215.26536284 -24.40848251 199.65372395 -24.39573669 184.04205322 C-24.39494852 183.07935544 -24.39416035 182.11665766 -24.3933483 181.12478721 C-24.38943312 176.29509735 -24.38564201 171.4654074 -24.38191259 166.63571739 C-24.35082483 126.58411862 -24.29777275 86.53257209 -24.23094177 46.48101807 C-19.61094177 46.48101807 -14.99094177 46.48101807 -10.23094177 46.48101807 C-9.35720441 78.77992683 -9.10290722 111.05297142 -9.1624794 143.3626492 C-9.17269039 149.6730931 -9.17601169 155.98354068 -9.17991638 162.29399109 C-9.18716174 172.83965474 -9.19721339 183.38531139 -9.21043396 193.93096924 C-9.21126177 194.59237814 -9.21208958 195.25378705 -9.21294248 195.93523865 C-9.21800388 199.9628925 -9.22315717 203.99054623 -9.22833824 208.01819992 C-9.23618622 214.12323743 -9.24392245 220.22827507 -9.25144958 226.33331299 C-9.25227771 227.00387344 -9.25310584 227.6744339 -9.25395906 228.36531437 C-9.26767248 239.57090415 -9.27736945 250.77649419 -9.28435993 261.98209041 C-9.28930882 269.44824845 -9.29911245 276.91437879 -9.31278992 284.38052571 C-9.32027384 289.01147672 -9.32356936 293.64242402 -9.32575607 298.27338028 C-9.32761868 300.40782459 -9.33120066 302.54226825 -9.336689 304.67670631 C-9.36320972 315.32867104 -9.33315651 325.87417836 -8.23094177 336.48101807 C-7.30784682 335.99345881 -6.38475187 335.50589956 -5.43368435 335.00356579 C-0.37464476 332.85424361 4.59240597 333.07494817 10.01293945 333.12025452 C11.69619324 333.11640244 11.69619324 333.11640244 13.41345215 333.11247253 C17.18114056 333.10751151 20.94842792 333.12406995 24.71607971 333.14044189 C27.46030698 333.14303063 30.20452683 333.14109348 32.94875431 333.13934612 C39.55387564 333.13775309 46.15887431 333.15158604 52.76396415 333.17085011 C60.40633989 333.19247112 68.04864223 333.1948355 75.6910553 333.19720459 C95.86290901 333.21294823 116.03473547 333.25483166 136.20655823 333.29351807 C203.80499573 333.38633057 203.80499573 333.38633057 272.76905823 333.48101807 C272.76905823 227.88101807 272.76905823 122.28101807 272.76905823 13.48101807 C133.17905823 13.97601807 133.17905823 13.97601807 -9.23094177 14.48101807 C-9.23094177 20.75101807 -9.23094177 27.02101807 -9.23094177 33.48101807 C-9.56094177 34.47101807 -9.89094177 35.46101807 -10.23094177 36.48101807 C-14.85094177 36.48101807 -19.47094177 36.48101807 -24.23094177 36.48101807 C-24.36691513 32.83391055 -24.46553128 29.19195536 -24.54344177 25.54351807 C-24.5853363 24.52193604 -24.62723083 23.500354 -24.6703949 22.44781494 C-24.78054754 15.55225977 -24.03089611 9.74006963 -19.23094177 4.48101807 C-12.97083564 -0.11820146 -7.60778387 -0.07730539 0 0 Z " fill="#FDFDFD" transform="translate(124.23094177246094,59.51898193359375)"/>
<path d="M0 0 C4.51840376 2.60206179 7.44994368 5.03499526 10.3125 9.375 C10.869375 10.179375 11.42625 10.98375 12 11.8125 C13.58372105 14.90452681 14.3936698 18.03202202 15.3125 21.375 C16.23289063 20.85550781 17.15328125 20.33601563 18.1015625 19.80078125 C26.62569656 15.07347261 34.98288357 11.29616631 44.3125 8.375 C45.36373047 8.03114258 46.41496094 7.68728516 47.49804688 7.33300781 C51.57855941 6.30817863 55.3854823 6.05186513 59.5625 6.0390625 C60.33827393 6.0324057 61.11404785 6.0257489 61.91333008 6.01889038 C63.55043185 6.00881345 65.18757428 6.00407182 66.82470703 6.00439453 C69.27839662 6.00006024 71.73022616 5.96379882 74.18359375 5.92578125 C88.4263342 5.82086268 100.68593656 8.50089766 113.5 15 C114.7075293 15.59167969 114.7075293 15.59167969 115.93945312 16.1953125 C118.07061329 17.24232231 120.19292647 18.30478564 122.3125 19.375 C123.64563087 20.04207145 124.97890612 20.70885468 126.3125 21.375 C126.38726562 20.818125 126.46203125 20.26125 126.5390625 19.6875 C127.86751041 11.97729249 131.10617143 6.899131 137.25 2.0625 C138.260625 1.505625 139.27125 0.94875 140.3125 0.375 C141.281875 -0.2025 142.25125 -0.78 143.25 -1.375 C150.30643773 -4.21957735 160.08606317 -3.92277314 167.125 -1.1875 C174.35849118 2.73064106 180.80357841 8.00932441 183.9375 15.75 C186.76738298 25.41202904 185.88711449 33.45916971 181.3125 42.375 C180.09284429 44.57301264 178.87922343 46.39048366 177.3125 48.375 C176.6525 48.375 175.9925 48.375 175.3125 48.375 C174.9825 49.365 174.6525 50.355 174.3125 51.375 C171.765625 52.76171875 171.765625 52.76171875 168.5625 54.0625 C167.51578125 54.49949219 166.4690625 54.93648437 165.390625 55.38671875 C162.4690335 56.32474242 160.34896256 56.58305392 157.3125 56.375 C157.63863281 56.99246094 157.96476563 57.60992187 158.30078125 58.24609375 C161.19628091 63.85772584 163.56456498 69.31257101 165.3125 75.375 C165.57119873 76.25784668 165.82989746 77.14069336 166.09643555 78.05029297 C168.59026392 87.53100101 168.66355016 96.47426637 168.5 106.1875 C168.48490852 107.76626311 168.4712281 109.34504036 168.45898438 110.92382812 C168.42637176 114.74124338 168.37484383 118.55795933 168.3125 122.375 C161.35548915 124.69400362 153.63569742 122.76043144 146.3125 122.375 C146.3125 142.835 146.3125 163.295 146.3125 184.375 C141.6925 184.375 137.0725 184.375 132.3125 184.375 C132.25191406 182.95445312 132.19132813 181.53390625 132.12890625 180.0703125 C132.04450709 178.21353091 131.95985877 176.35676064 131.875 174.5 C131.83568359 173.56285156 131.79636719 172.62570312 131.75585938 171.66015625 C131.69301758 170.31630859 131.69301758 170.31630859 131.62890625 168.9453125 C131.59224854 168.11789551 131.55559082 167.29047852 131.51782227 166.43798828 C131.43011673 164.31320571 131.43011673 164.31320571 130.3125 162.375 C129.9825 163.035 129.6525 163.695 129.3125 164.375 C128.6525 164.375 127.9925 164.375 127.3125 164.375 C127.07660156 164.94476563 126.84070313 165.51453125 126.59765625 166.1015625 C118.93867777 179.65027215 101.61491798 186.0320313 87.5390625 190.1953125 C65.97189019 195.02581482 45.29674942 190.05487443 26.95410156 178.43554688 C21.02206954 174.60319305 17.04105268 171.5004794 13.3125 165.375 C12.00120078 164.01999081 10.67085269 162.68283544 9.3125 161.375 C9.31773682 162.00067871 9.32297363 162.62635742 9.32836914 163.27099609 C9.34911618 166.09732057 9.36215286 168.92362905 9.375 171.75 C9.38337891 172.73484375 9.39175781 173.7196875 9.40039062 174.734375 C9.40361328 175.67539062 9.40683594 176.61640625 9.41015625 177.5859375 C9.41539307 178.45524902 9.42062988 179.32456055 9.42602539 180.22021484 C9.3125 182.375 9.3125 182.375 8.3125 184.375 C3.6925 184.375 -0.9275 184.375 -5.6875 184.375 C-5.6875 163.915 -5.6875 143.455 -5.6875 122.375 C-16.0825 122.87 -16.0825 122.87 -26.6875 123.375 C-28.62699131 121.43550869 -27.89837062 117.79551607 -27.92578125 115.1484375 C-27.933853 114.40856598 -27.94192474 113.66869446 -27.95024109 112.90640259 C-27.96411638 111.32759966 -27.97482301 109.74876629 -27.98266602 108.16992188 C-27.99404312 106.58161408 -28.01426025 104.99333998 -28.04418945 103.40527344 C-28.36775277 86.23291876 -24.55077592 71.77692119 -16.6875 56.375 C-17.80125 56.313125 -18.915 56.25125 -20.0625 56.1875 C-25.51142948 55.54300296 -29.94859941 53.00664357 -34.6875 50.375 C-34.6875 49.715 -34.6875 49.055 -34.6875 48.375 C-35.6775 48.045 -36.6675 47.715 -37.6875 47.375 C-39.20895656 45.04526964 -40.47041576 42.85746546 -41.6875 40.375 C-41.99171875 39.77429688 -42.2959375 39.17359375 -42.609375 38.5546875 C-45.61338977 31.78148439 -45.8155135 24.60220209 -43.9140625 17.4765625 C-40.54240761 8.93981928 -34.47922007 2.83531007 -26.34765625 -1.33984375 C-17.68402878 -4.3818218 -8.26528033 -3.8973661 0 0 Z M-28.0625 18.125 C-30.70677099 23.41354197 -31.26665944 27.27554705 -29.6875 33 C-27.22220367 37.16018756 -25.07487538 40.18516765 -20.6875 42.375 C-15.02046435 43.45150609 -9.57237743 43.47472371 -4.625 40.25 C-1.06676413 37.14305258 0.93019358 33.98902016 1.625 29.23828125 C1.93954414 23.44870325 0.68607758 20.06052442 -2.6875 15.375 C-6.83706383 11.48478391 -10.97462967 11.00341558 -16.59765625 11.09765625 C-21.63060074 11.76557972 -24.82032125 14.37089828 -28.0625 18.125 Z M141.3125 18.375 C138.61835729 22.86837787 138.54276302 27.26960163 139.3125 32.375 C141.48676716 37.20870136 144.59301947 40.00840002 149.3125 42.375 C154.31967148 43.32808919 159.15947728 43.42954174 163.80078125 41.15625 C167.69168932 38.14026276 169.76663488 35.21586665 171 30.4375 C171.62352613 25.4943651 171.01373566 21.59568072 168.3125 17.375 C164.52538532 13.23798886 161.0813167 11.4605879 155.4375 11.1875 C148.94069196 11.30627163 145.61427875 13.49189979 141.3125 18.375 Z M36.3125 26.375 C35.6525 26.68308594 34.9925 26.99117187 34.3125 27.30859375 C18.23039153 34.87849246 2.992353 48.20971501 -4.6875 64.375 C-5.11804688 65.27476562 -5.54859375 66.17453125 -5.9921875 67.1015625 C-7.26808174 69.84209273 -8.48872781 72.59998755 -9.6875 75.375 C-9.98785156 76.04144531 -10.28820312 76.70789063 -10.59765625 77.39453125 C-14.69366749 87.17144249 -15.02652242 97.92180883 -14.6875 108.375 C-10.01790986 109.29289135 -5.49345984 109.52692598 -0.75 109.5 C-0.07259766 109.50386719 0.60480469 109.50773437 1.30273438 109.51171875 C3.30650421 109.50787643 5.30984533 109.44195207 7.3125 109.375 C8.52550781 109.36855469 9.73851562 109.36210937 10.98828125 109.35546875 C15.89546993 107.90810758 17.18413665 104.89127278 19.5625 100.5625 C20.39980129 99.11777001 21.23830858 97.67373816 22.078125 96.23046875 C22.46548828 95.55677246 22.85285156 94.88307617 23.25195312 94.18896484 C24.47600862 92.09533401 25.6521998 90.15189432 27.3125 88.375 C28.3025 88.375 29.2925 88.375 30.3125 88.375 C32.12022903 90.73872464 33.72719999 93.05632719 35.3125 95.5625 C35.75078125 96.23603516 36.1890625 96.90957031 36.640625 97.60351562 C38.43953815 100.38045234 40.17111732 103.08745042 41.6328125 106.06030273 C43.099097 108.57670806 43.099097 108.57670806 45.703125 109.07763672 C47.11851562 109.12815186 47.11851562 109.12815186 48.5625 109.1796875 C50.16931641 109.24881348 50.16931641 109.24881348 51.80859375 109.31933594 C53.54302734 109.34688965 53.54302734 109.34688965 55.3125 109.375 C56.49972656 109.40110352 57.68695313 109.42720703 58.91015625 109.45410156 C62.71183478 109.509068 66.51047279 109.51152129 70.3125 109.5 C72.22675781 109.50580078 72.22675781 109.50580078 74.1796875 109.51171875 C77.89250516 109.50792241 81.60050895 109.44997697 85.3125 109.375 C87.01212891 109.37681274 87.01212891 109.37681274 88.74609375 109.37866211 C94.22566051 109.34871704 94.22566051 109.34871704 99.0234375 107.07714844 C100.37422927 105.34670231 101.34515009 103.65631796 102.3125 101.6875 C102.99977227 100.45430014 103.68727041 99.22122613 104.375 97.98828125 C104.6946875 97.38709473 105.014375 96.7859082 105.34375 96.16650391 C106.84260943 93.39467162 108.39865402 90.88692285 110.3125 88.375 C111.3025 88.375 112.2925 88.375 113.3125 88.375 C115.1796875 90.71875 115.1796875 90.71875 117.1875 93.875 C118.24904297 95.50888672 118.24904297 95.50888672 119.33203125 97.17578125 C120.49994651 99.06241359 121.63691524 100.96991359 122.69921875 102.91796875 C123.08722656 103.62566406 123.47523438 104.33335937 123.875 105.0625 C124.34099609 105.99642578 124.34099609 105.99642578 124.81640625 106.94921875 C128.66966868 110.62138791 136.32023201 109.52902042 141.4375 109.5 C142.12714844 109.50386719 142.81679688 109.50773437 143.52734375 109.51171875 C147.22830111 109.50464235 150.75053435 109.43686901 154.3125 108.375 C155.80400617 105.39198766 155.19320289 102.86244945 154.9375 99.5625 C154.80214844 97.72751953 154.80214844 97.72751953 154.6640625 95.85546875 C154.37090181 92.95317795 153.93999411 90.21803101 153.3125 87.375 C153.19390625 86.715 153.0753125 86.055 152.953125 85.375 C148.70370863 63.61798821 135.06948334 45.93472689 117.21484375 33.296875 C106.95180906 26.5008951 95.20733442 20.33265406 82.57421875 20.38671875 C80.3125 20.375 80.3125 20.375 79.3125 19.375 C64.56715642 18.51250521 49.58501331 19.33735685 36.3125 26.375 Z M28.3125 111.375 C27.08522019 112.97016944 25.90543495 114.60204632 24.75 116.25 C24.10933594 117.15492188 23.46867187 118.05984375 22.80859375 118.9921875 C21.13525168 121.18837567 21.13525168 121.18837567 21.3125 123.375 C20.6525 123.045 19.9925 122.715 19.3125 122.375 C17.60547265 122.30503986 15.89581997 122.29059846 14.1875 122.3125 C13.27742188 122.32152344 12.36734375 122.33054687 11.4296875 122.33984375 C10.38167969 122.35724609 10.38167969 122.35724609 9.3125 122.375 C9.96055201 137.60422219 17.38038888 150.9149144 28.3125 161.375 C42.47049225 173.13441185 57.78809292 178.82454958 76.28515625 177.59082031 C93.31063866 175.77837734 107.920462 167.39299536 118.8125 154.390625 C125.78218225 144.90980724 131.20468341 135.45045754 131.3125 123.375 C130.8175 122.88 130.8175 122.88 130.3125 122.375 C129.55582031 122.45878906 128.79914063 122.54257812 128.01953125 122.62890625 C124.87060038 122.96462223 122.41201589 123.07098613 119.3125 122.375 C117.14171843 119.90958141 115.89008863 117.54531651 114.53125 114.5625 C113.92796875 113.4796875 113.92796875 113.4796875 113.3125 112.375 C112.3225 112.375 111.3325 112.375 110.3125 112.375 C109.3534375 114.0146875 109.3534375 114.0146875 108.375 115.6875 C108.01535156 116.30238281 107.65570313 116.91726563 107.28515625 117.55078125 C106.17348753 119.51319555 106.17348753 119.51319555 105.3125 122.375 C82.2125 122.375 59.1125 122.375 35.3125 122.375 C34.6525 120.725 33.9925 119.075 33.3125 117.375 C32.9825 116.715 32.6525 116.055 32.3125 115.375 C31.6525 115.375 30.9925 115.375 30.3125 115.375 C29.9825 114.055 29.6525 112.735 29.3125 111.375 C28.9825 111.375 28.6525 111.375 28.3125 111.375 Z " fill="#FDFDFD" transform="translate(185.6875,144.625)"/>
<path d="M0 0 C6.75 0.875 6.75 0.875 9 2 C10.66272703 2.20222356 12.33054185 2.36411387 14 2.5 C18.77777778 2.88888889 18.77777778 2.88888889 21 4 C21 8.62 21 13.24 21 18 C17.37 18 13.74 18 10 18 C10 17.34 10 16.68 10 16 C9.45859375 16.20496094 8.9171875 16.40992188 8.359375 16.62109375 C5.17208576 17.13295974 3.23444753 16.23496153 0.25 15.0625 C-0.73484375 14.68222656 -1.7196875 14.30195313 -2.734375 13.91015625 C-3.48203125 13.60980469 -4.2296875 13.30945313 -5 13 C-3.25740319 3.40546697 -3.25740319 3.40546697 0 0 Z " fill="#FDFDFD" transform="translate(216,277)"/>
<path d="M0 0 C2.34155991 3.80692321 4 7.50730591 4 12 C-4.77055483 15.45360676 -12.58295187 16.62331807 -22 17 C-22 12.38 -22 7.76 -22 3 C-18.45182292 2.25130208 -14.90364583 1.50260417 -11.35546875 0.75390625 C-2.70819251 -1.18896257 -2.70819251 -1.18896257 0 0 Z " fill="#FDFDFD" transform="translate(297,278)"/>
<path d="M0 0 C4.62 0 9.24 0 14 0 C14 4.29 14 8.58 14 13 C9.38 13 4.76 13 0 13 C0 8.71 0 4.42 0 0 Z " fill="#FDFDFD" transform="translate(375,83)"/>
<path d="M0 0 C4.62 0 9.24 0 14 0 C14.09765625 9.27734375 14.09765625 9.27734375 14 12 C13 13 13 13 10.3125 13.1328125 C9.219375 13.13023438 8.12625 13.12765625 7 13.125 C5.906875 13.12757812 4.81375 13.13015625 3.6875 13.1328125 C1 13 1 13 0 12 C-0.14355117 7.99779347 -0.04216403 4.00558317 0 0 Z " fill="#FCFCFC" transform="translate(375,106)"/>
<path d="M0 0 C4.29 0 8.58 0 13 0 C13 3.96 13 7.92 13 12 C8.71 12 4.42 12 0 12 C0 8.04 0 4.08 0 0 Z " fill="#FEFEFE" transform="translate(358,439)"/>
<path d="" fill="#ECECEC" transform="translate(0,0)"/>
</svg>
